<?xml version="1.0" encoding="utf-8"?>
<!-- Generator: Adobe Illustrator 27.5.0, SVG Export Plug-In . SVG Version: 6.00 Build 0)  -->
<svg version="1.1" xmlns="http://www.w3.org/2000/svg" xmlns:xlink="http://www.w3.org/1999/xlink" x="0px" y="0px"
	 viewBox="0 0 750 500" style="enable-background:new 0 0 750 500;" xml:space="preserve">
<g id="BACKGROUND">
	<rect style="fill:#FFFFFF;" width="750" height="500"/>
</g>
<g id="OBJECTS">
	<g>
		<g>
			<path style="fill:#D1FFFF;" d="M308.102,106.754c-13.793,0.041-28.191-2.681-39.004-11.245
				c-10.813-8.564-16.913-24.038-11.541-36.742c5.215-12.334,18.958-18.58,31.915-21.963c17.423-4.549,35.653-5.988,53.574-4.23
				c11,1.08,22.213,3.493,31.307,9.777c10.578,7.309,14.238,16.127,8.751,28.38c-4.083,9.117-10.818,16.965-19.024,22.628
				c-8.865,6.118-17.507,7.015-27.409,9.618C327.355,105.426,317.735,106.726,308.102,106.754z"/>
			<path style="fill:#D1FFFF;" d="M603.25,463.083H127.719c-49.63-64.227-67.885-151.994-47.731-230.62
				c9.564-37.313,27.884-73.268,57.018-98.467c29.134-25.198,69.961-38.334,107.333-29.001
				c17.055,4.259,32.884,12.891,50.182,16.019c34.207,6.186,68.38-9.889,97.771-28.45c29.391-18.561,57.902-40.526,91.797-48.24
				c52.315-11.906,108.36,14.219,142.168,55.881c33.807,41.662,48.05,96.264,51.299,149.819
				C682.136,325.536,656.369,409.219,603.25,463.083z"/>
		</g>
		<g>
			<g>
				<path style="fill:#00ECEB;" d="M180.375,300.729c0.391-2.491-0.37-4.944-1.774-6.948c-1.412-1.999-3.503-3.517-5.912-4.046l0,0
					c-4.917-0.993-9.164,2.31-9.686,7.109c-0.312,2.474-0.642,4.924-0.99,7.35c-0.591,4.038-5.752,5.067-8.101,1.745l-0.277-0.392
					c-0.904-1.322-1.767-2.653-2.46-4.069c-0.699-1.412-1.262-2.886-1.687-4.404c-0.816-3.061-1.222-6.189-0.989-9.377
					c0.306-4.301,0.583-8.699,0.646-13.041c0.049-2.186,0.082-4.389,0.098-6.608l0.012-3.342c0.003-1.121-0.039-2.21-0.063-3.323
					c-0.145-4.931-4.337-9.46-9.384-9.628l0,0c-4.994-0.23-8.659,3.709-8.431,8.56c0.111,2.472,0.234,4.888,0.241,7.375
					c0.023,2.06-1.205,3.533-2.781,4.132c-0.788,0.299-1.664,0.38-2.518,0.203c-0.846-0.186-1.697-0.604-2.436-1.315l-3.949-3.842
					c-1.32-1.277-2.616-2.579-4-3.789c-1.796-1.622-4.063-2.385-6.247-2.284c-2.187,0.099-4.29,1.061-5.827,2.833l0,0
					c-1.537,1.772-2.229,4.009-2.132,6.167c0.099,2.16,0.987,4.242,2.674,5.763c1.302,1.135,2.52,2.362,3.761,3.563l3.715,3.612
					c0.696,0.668,1.083,1.472,1.191,2.319c0.116,0.838-0.022,1.692-0.366,2.457c-0.688,1.531-2.199,2.707-4.118,2.732
					c-2.279,0.009-4.628,0.133-6.92,0.243c-4.528,0.225-8.194,4.164-8.431,8.56l0,0c-0.058,1.1,0.105,2.125,0.453,3.038
					c0.354,0.907,0.835,1.764,1.496,2.443c1.307,1.373,3.214,2.168,5.439,2.094c0.991-0.029,2.008-0.074,2.99-0.077l2.967-0.006
					c1.986,0.004,3.989,0.025,6.009,0.063c4.074,0.045,8.065,0.287,12.15,0.571c3.015,0.215,5.969,1.032,8.505,2.503
					c1.284,0.722,2.499,1.579,3.621,2.555c1.117,0.98,2.175,2.055,3.024,3.302l0.261,0.369c2.242,3.175-0.619,7.458-4.457,6.902
					c-2.293-0.325-4.568-0.627-6.824-0.905c-4.539-0.482-8.787,2.82-9.686,7.109l0,0c-0.494,2.181-0.076,4.215,1.022,5.767
					c1.091,1.557,2.905,2.611,5.055,2.935c3.896,0.547,7.864,1.158,11.855,1.864c3.917,0.753,7.887,1.582,11.906,2.491
					c1.503,0.327,2.886,0.845,4.218,1.491c1.329,0.647,2.589,1.432,3.758,2.339c1.164,0.91,2.265,1.928,3.208,3.074
					c0.923,1.157,1.736,2.418,2.418,3.763l0.205,0.403c1.759,3.467-1.719,7.234-5.453,6.097c-2.232-0.673-4.45-1.319-6.653-1.939
					c-4.339-1.225-9.054,1.368-10.684,5.496l0,0c-0.813,2.067-0.697,4.128,0.167,5.82c0.842,1.703,2.347,3.084,4.479,3.713
					c1.899,0.567,3.809,1.155,5.729,1.764c1.915,0.611,3.763,1.276,5.664,1.944c1.891,0.672,3.792,1.366,5.702,2.081l2.869,1.09
					l2.81,1.151c2.779,1.151,5.26,2.874,7.315,5.023c1.984,2.172,3.485,4.789,4.446,7.646l0.564,1.691l0.499,1.71
					c0.637,2.181,2.126,3.885,4.028,4.913c1.902,1.025,4.216,1.374,6.48,0.76l0,0c2.264-0.614,4.045-2.091,5.084-4.017
					c1.04-1.923,1.337-4.296,0.657-6.619l-0.533-1.819l-0.598-1.798c-1.019-3.037-1.404-6.211-1.26-9.364
					c0.074-3.126,0.735-6.252,1.968-9.217l1.243-3.021l1.157-3.024c0.764-2.026,1.518-4.073,2.263-6.141
					c0.734-2.064,1.5-4.168,2.18-6.259c0.674-2.088,1.337-4.197,1.989-6.327c0.718-2.372,0.471-4.973-0.612-7.169
					c-1.104-2.185-2.955-4.002-5.269-4.894h0c-4.632-1.789-9.347,0.804-10.684,5.496c-0.678,2.385-1.371,4.744-2.078,7.076
					c-1.188,3.88-6.469,4.094-8.31,0.465l-0.217-0.428c-0.724-1.427-1.304-2.91-1.74-4.432c-0.456-1.511-0.817-3.035-1.006-4.596
					c-0.196-1.557-0.247-3.137-0.153-4.719c0.092-1.581,0.347-3.175,0.683-4.712c0.951-4.18,1.854-8.44,2.703-12.776
					C179.029,309.509,179.722,305.161,180.375,300.729z"/>
				<path style="fill:#FFFFFF;" d="M171.459,296.418l-0.404-0.088c-0.426,3.434-0.852,6.798-1.377,10.162
					c-0.557,3.385-1.146,6.724-1.768,10.016c-0.321,1.652-0.608,3.267-0.978,4.917l-1.11,4.899
					c-0.766,3.248-1.515,6.422-2.378,9.595c-7.355-12.867-15.782-25.115-25.072-36.658c0.336-3.281,0.636-6.607,0.897-9.977
					c0.145-1.698,0.215-3.35,0.297-5.033l0.206-5.07c0.293-6.856,0.155-13.64-0.057-20.676l-0.41-0.026
					c0.114,3.474,0.185,6.91,0.215,10.305c0.008,1.704,0.036,3.37-0.002,5.076l-0.142,5.086c-0.123,3.377-0.249,6.681-0.478,9.997
					c-0.256,3.34-0.55,6.636-0.88,9.888c-8.823-10.917-18.459-21.178-28.82-30.648l-0.266,0.291
					c10.347,9.456,19.969,19.703,28.78,30.605c-3.278-0.333-6.52-0.621-9.724-0.866c-3.232-0.222-6.49-0.344-9.674-0.456
					l-4.758-0.125c-1.575-0.032-3.196-0.002-4.776,0.01c-3.174,0.037-6.307,0.115-9.397,0.232l-0.026,0.377
					c6.224-0.219,12.722-0.372,19.116-0.105l4.868,0.193c1.629,0.078,3.29,0.148,4.895,0.286c3.239,0.25,6.516,0.544,9.829,0.884
					c9.277,11.527,17.693,23.758,25.037,36.608c-3.16-0.859-6.376-1.619-9.516-2.358l-4.704-1.063
					c-1.552-0.348-3.172-0.636-4.742-0.939c-3.161-0.593-6.289-1.139-9.385-1.639c-3.127-0.479-6.286-0.866-9.373-1.234
					l-0.082,0.366c12.604,1.397,25.214,3.92,38.072,7.354c7.54,13.222,14.028,27.044,19.36,41.3
					c-11.869-5.467-24.035-9.827-35.99-13.266l-0.136,0.346c12.051,3.485,24.354,7.892,36.322,13.441
					c0.53,1.428,1.083,2.848,1.595,4.283l1.446,4.336l1.446,4.336c0.49,1.443,0.872,2.919,1.313,4.377l0.377-0.112
					c-0.442-1.46-0.825-2.939-1.315-4.384l-1.448-4.342l-1.448-4.342c-0.512-1.437-1.066-2.859-1.597-4.289
					c5.603-12.093,10.212-24.813,14.171-38.234l-0.388-0.15c-3.896,13.276-8.464,25.882-13.979,37.862
					c-5.339-14.276-11.836-28.117-19.387-41.357C167.126,323.652,169.865,310.203,171.459,296.418z"/>
			</g>
			<g>
				<g>
					<path style="fill:#00A4D0;" d="M157.963,351.143L157.963,351.143L157.963,351.143c-6.039,8.527-9.722,18.365-10.976,28.564
						c-1.265,10.194-0.099,20.731,3.274,30.516c3.378,9.784,8.958,18.797,16.239,26.043c7.276,7.257,16.242,12.731,26.254,15.72l0,0
						v0c2.998-10.036,4.294-19.849,4.155-29.26c-0.146-9.414-1.738-18.434-4.692-26.978c-2.943-8.548-7.251-16.631-12.941-24.132
						C173.583,364.122,166.511,357.196,157.963,351.143z"/>
					<path style="fill:#FFFFFF;" d="M191.225,406.561c-0.093-0.039-0.203,0.003-0.247,0.094c-3.426,7.086-6.561,14.375-9.494,21.9
						c-4.394-9.929-8.261-20.089-11.66-30.4c2.862-5.652,5.87-11.16,9.01-16.515c0.051-0.087,0.019-0.196-0.07-0.243
						c-0.09-0.047-0.204-0.015-0.254,0.072c-1.518,2.618-3.07,5.293-4.526,7.985c-1.452,2.69-2.934,5.437-4.326,8.2
						c-2.513-7.721-4.743-15.534-6.683-23.419c1.398-2.308,2.795-4.582,4.262-6.837c0.056-0.086,0.03-0.199-0.057-0.253
						c-0.087-0.054-0.202-0.028-0.257,0.058l-2.067,3.243l-2.008,3.276c-1.232-4.953-2.296-9.947-3.291-14.952
						c-0.021-0.101-0.119-0.167-0.22-0.147c-0.101,0.02-0.167,0.118-0.146,0.219c1.469,7.628,3.255,15.193,5.28,22.691
						c-1.729-0.997-3.462-2.012-5.2-3.045c-1.712-1.039-3.425-2.097-5.144-3.172c-0.089-0.056-0.204-0.028-0.257,0.062
						c-0.053,0.09-0.024,0.208,0.065,0.263c1.776,1.108,3.531,2.201,5.312,3.268c1.792,1.064,3.579,2.108,5.361,3.135
						c2.415,8.887,5.203,17.672,8.353,26.325c-3.757-1.77-7.565-3.605-11.294-5.552c-1.869-0.972-3.777-1.951-5.63-2.97
						c-1.86-1.016-3.725-2.051-5.596-3.105c-0.093-0.052-0.206-0.018-0.253,0.077c-0.047,0.095-0.01,0.214,0.083,0.266
						c1.899,1.07,3.792,2.12,5.68,3.151c1.894,1.029,3.821,2.025,5.72,3.009c3.783,1.974,7.664,3.828,11.468,5.622
						c2.759,7.514,5.789,14.929,9.082,22.224c-1.591-0.603-3.195-1.216-4.79-1.846l-4.758-1.947
						c-3.201-1.315-6.35-2.708-9.523-4.148c-0.096-0.044-0.206,0-0.245,0.098c-0.039,0.098,0.007,0.212,0.103,0.256l4.836,2.16
						c1.614,0.704,3.251,1.385,4.867,2.059c1.622,0.671,3.23,1.334,4.848,1.977l4.88,1.873c2.097,4.675,4.351,9.278,6.663,13.85
						c0.046,0.092,0.158,0.129,0.25,0.082c0.092-0.047,0.129-0.16,0.083-0.252c-1.338-2.679-2.706-5.343-3.969-8.058
						c-0.636-1.355-1.304-2.696-1.914-4.063l-1.847-4.094c0.715-1.9,1.499-3.809,2.264-5.688c0.776-1.885,1.535-3.741,2.345-5.599
						c1.634-3.72,3.246-7.35,5.004-10.954C191.358,406.704,191.318,406.6,191.225,406.561z"/>
				</g>
				<g>
					<path style="fill:#00CFE3;" d="M102.13,356.756L102.13,356.756L102.13,356.756c-1.498,3.143-2.782,6.426-3.852,9.826
						c-0.563,1.712-0.941,3.397-1.315,5.13c-0.365,1.728-0.676,3.481-0.934,5.256c-0.955,7.061-0.825,14.367,0.391,21.591
						c2.395,14.461,9.164,28.584,19.099,39.998c9.937,11.412,22.994,20.061,36.988,24.424c6.988,2.2,14.206,3.334,21.332,3.36
						c1.793-0.011,3.573-0.078,5.335-0.201c1.767-0.133,3.489-0.274,5.262-0.597c3.515-0.591,6.943-1.411,10.262-2.462h0l0,0
						c-4.422-13.442-9.407-25.276-14.975-35.798c-5.583-10.526-11.805-19.73-19.062-28.026c-7.218-8.33-15.478-15.76-25.135-22.739
						C125.87,369.553,114.835,362.987,102.13,356.756z"/>
					<path style="fill:#FFFFFF;" d="M164.428,412.332c-0.13,0.009-0.242,0.122-0.251,0.253c-0.37,5.171-0.345,10.258-0.219,15.583
						l0.059,2l0.119,1.963c0.085,1.313,0.182,2.636,0.29,3.968c0.108,1.332,0.227,2.674,0.357,4.025
						c0.132,1.35,0.262,2.724,0.456,4.042c-0.745-0.531-1.444-1.121-2.15-1.702l-2.119-1.742l-2.119-1.742
						c-0.704-0.584-1.426-1.147-2.091-1.775l-4.067-3.682l-2.029-1.846l-1.944-1.936l-3.888-3.872
						c-1.279-1.307-2.479-2.689-3.722-4.03l-1.85-2.026l-0.925-1.013l-0.879-1.053l-3.504-4.222
						c0.898-8.493,2.383-16.722,4.405-24.607c0.032-0.128-0.049-0.246-0.181-0.266c-0.132-0.019-0.265,0.069-0.297,0.196
						c-0.48,1.923-0.943,3.875-1.387,5.857c-0.445,1.982-0.885,4.005-1.209,5.987c-0.348,1.999-0.676,4.026-0.983,6.082
						c-0.303,2.052-0.616,4.156-0.802,6.203c-6.841-8.539-12.953-17.661-18.227-27.245c0.51-1.747,1.032-3.471,1.567-5.171
						l0.405-1.271l0.45-1.283l0.913-2.538c0.047-0.129-0.02-0.265-0.149-0.306c-0.129-0.041-0.272,0.03-0.319,0.158
						c-0.578,1.599-1.178,3.236-1.708,4.865c-0.511,1.619-1.011,3.26-1.499,4.923l-1.24-2.262c-0.418-0.751-0.831-1.505-1.193-2.286
						l-2.256-4.638l-1.128-2.319c-0.355-0.783-0.68-1.579-1.021-2.368l-2.024-4.744c-0.055-0.128-0.203-0.189-0.332-0.137
						c-0.129,0.052-0.189,0.198-0.134,0.327c3.896,9.736,8.769,19.066,14.302,27.963c-2.615-0.62-5.26-1.29-7.934-2.01
						c-2.601-0.763-5.219-1.583-7.87-2.453c-0.137-0.045-0.277,0.031-0.313,0.169c-0.036,0.139,0.045,0.288,0.182,0.333
						c2.743,0.89,5.41,1.754,8.135,2.511c2.755,0.739,5.48,1.425,8.172,2.058c6.602,10.529,14.243,20.404,22.766,29.448
						c-2.787-0.106-5.617-0.257-8.488-0.455l-2.16-0.158c-0.716-0.061-1.415-0.142-2.128-0.217c-1.42-0.154-2.849-0.32-4.288-0.498
						c-1.439-0.178-2.888-0.368-4.345-0.571l-2.194-0.313c-0.734-0.107-1.438-0.244-2.161-0.369
						c-2.878-0.515-5.793-1.081-8.741-1.699c-0.146-0.031-0.275,0.063-0.288,0.21c-0.013,0.147,0.095,0.291,0.241,0.322
						c2.992,0.627,5.95,1.2,8.871,1.721c1.442,0.275,2.968,0.462,4.436,0.676c1.479,0.205,2.948,0.396,4.408,0.576
						c1.459,0.179,2.909,0.346,4.348,0.5l1.078,0.113l1.101,0.085l2.19,0.157c2.91,0.197,5.777,0.345,8.601,0.447
						c7.461,7.813,15.575,15,24.243,21.445c-2.269,0.327-4.589,0.651-6.911,0.908c-2.291,0.219-4.615,0.411-6.971,0.576
						l-3.557,0.226c-1.197,0.072-2.399,0.134-3.572,0.147c-2.367,0.05-4.764,0.071-7.19,0.063c-0.147-0.001-0.255,0.117-0.241,0.262
						c0.014,0.146,0.145,0.264,0.292,0.264c2.471,0.009,4.911-0.014,7.32-0.066c2.425-0.071,4.881-0.242,7.269-0.402
						c2.401-0.175,4.751-0.357,7.099-0.607c2.379-0.289,4.724-0.605,7.033-0.947c5.527,4.157,11.379,7.863,17.333,11.375
						c0.12,0.072,0.272,0.032,0.342-0.088c0.069-0.121,0.029-0.276-0.09-0.348c-3.449-2.093-6.958-4.091-10.263-6.413l-2.513-1.686
						c-0.84-0.559-1.681-1.116-2.479-1.734l-4.856-3.613c-0.403-2.677-0.627-5.483-0.862-8.178c-0.111-1.355-0.211-2.7-0.3-4.035
						c-0.084-1.34-0.181-2.642-0.203-4.008c-0.072-2.7-0.099-5.359-0.084-7.975c0.017-1.319,0.004-2.582,0.076-3.915
						c0.06-1.32,0.13-2.63,0.211-3.928C164.657,412.421,164.558,412.323,164.428,412.332z"/>
				</g>
			</g>
			<g>
				<g>
					<path style="fill:#00CFE3;" d="M647.163,327.797L647.163,327.797L647.163,327.797c-14.916,8.237-27.768,17.031-38.881,26.354
						c-11.112,9.34-20.464,19.262-28.388,30.213c-7.967,10.919-14.515,22.88-19.966,36.333c-5.433,13.449-9.827,28.389-13.053,45.12
						v0h0c4.132,0.754,8.347,1.222,12.621,1.414c2.157,0.122,4.235,0.052,6.36-0.039c2.118-0.1,4.246-0.268,6.381-0.503
						c8.48-1.009,16.901-3.299,24.918-6.778c16.056-6.921,30.486-18.621,41.061-33.169c10.57-14.552,17.239-31.891,18.862-49.3
						c0.832-8.699,0.409-17.416-1.251-25.793c-0.436-2.103-0.933-4.179-1.493-6.224c-0.57-2.049-1.145-4.047-1.928-6.061
						C650.904,335.358,649.157,331.494,647.163,327.797z"/>
					<path style="fill:#FFFFFF;" d="M620.472,437.179c-0.007-0.177-0.154-0.3-0.329-0.275c-6.774,1.048-13.688,1.643-20.346,2.121
						l-2.494,0.166l-2.532,0.098l-5.016,0.142l-4.95,0.073c-1.64,0.011-3.254,0.027-4.92-0.034c0.823-0.738,1.589-1.533,2.364-2.319
						l2.326-2.359l2.326-2.358c0.772-0.79,1.566-1.558,2.292-2.391l4.445-4.913l2.217-2.461l2.115-2.55l4.23-5.099
						c1.39-1.716,2.687-3.505,4.035-5.254l2.004-2.638l1.002-1.319l0.948-1.358l3.779-5.442c10.117-1.941,20.322-4.578,30.544-7.931
						c0.167-0.054,0.271-0.235,0.232-0.405c-0.039-0.17-0.207-0.263-0.375-0.209c-2.522,0.812-5.026,1.591-7.513,2.336
						c-2.486,0.746-4.937,1.469-7.479,2.092c-2.515,0.64-5.011,1.247-7.487,1.823c-2.481,0.572-4.906,1.136-7.433,1.588
						c7.367-10.968,13.889-22.503,19.471-34.477c2.059-0.753,4.129-1.532,6.212-2.337l1.562-0.61l1.522-0.64l3.055-1.31
						c0.156-0.068,0.232-0.252,0.17-0.412c-0.062-0.16-0.24-0.234-0.396-0.166c-1.957,0.842-3.868,1.675-5.834,2.455
						c-1.987,0.771-3.964,1.517-5.93,2.24l1.312-2.825c0.443-0.939,0.88-1.881,1.259-2.848l2.374-5.759l1.187-2.88
						c0.372-0.969,0.711-1.951,1.068-2.926l2.117-5.858c0.057-0.158-0.025-0.33-0.184-0.384c-0.159-0.054-0.333,0.029-0.39,0.186
						c-4.04,11.931-9.153,23.488-15.012,34.63c-0.976-3.104-1.982-6.152-3.014-9.143c-1.115-3.031-2.269-6.011-3.441-8.93
						c-0.061-0.151-0.235-0.23-0.39-0.178c-0.155,0.052-0.231,0.216-0.17,0.366c1.198,3.004,2.424,6.096,3.522,9.202
						c1.063,3.088,2.097,6.237,3.1,9.444c-6.993,13.192-15.159,25.762-24.361,37.521c-0.438-3.379-0.918-6.706-1.437-9.977
						l-0.397-2.443c-0.142-0.816-0.31-1.646-0.466-2.463c-0.32-1.638-0.65-3.262-0.989-4.872c-0.339-1.61-0.687-3.206-1.045-4.788
						l-0.543-2.362c-0.183-0.784-0.405-1.588-0.609-2.375c-0.835-3.162-1.705-6.265-2.607-9.309
						c-0.045-0.151-0.208-0.251-0.366-0.225c-0.157,0.026-0.248,0.169-0.203,0.32c0.916,3.09,1.799,6.24,2.646,9.451
						c0.445,1.62,0.772,3.183,1.147,4.798c0.362,1.607,0.715,3.228,1.058,4.864c0.343,1.636,0.677,3.286,1,4.951l0.241,1.251
						l0.206,1.234l0.4,2.484c0.523,3.325,1.006,6.707,1.446,10.144c-8.059,10.175-16.886,19.739-26.394,28.572
						c0.095-2.767,0.177-5.482,0.188-8.203c-0.025-2.76-0.083-5.487-0.172-8.181l-0.156-4.016c-0.056-1.327-0.123-2.648-0.24-4.002
						c-0.211-2.685-0.451-5.336-0.72-7.951c-0.016-0.159-0.16-0.286-0.32-0.286c-0.16,0-0.277,0.129-0.26,0.287
						c0.274,2.663,0.519,5.363,0.732,8.099c0.194,2.717,0.284,5.399,0.382,8.154c0.083,2.741,0.156,5.538,0.155,8.328
						c-0.038,2.752-0.109,5.537-0.216,8.354c-6.059,5.686-12.52,10.925-19.115,15.973c-0.132,0.103-0.158,0.294-0.057,0.429
						c0.1,0.134,0.289,0.16,0.422,0.056c3.836-3.004,7.748-5.915,11.4-9.146l2.783-2.368c0.93-0.787,1.862-1.571,2.74-2.417
						l5.354-4.976c3.38,0.132,6.649,0.055,10.034,0.001l5.089-0.138c1.702-0.064,3.445-0.111,5.12-0.244
						c3.385-0.234,6.813-0.518,10.283-0.852c1.723-0.177,3.507-0.324,5.208-0.563l5.18-0.715
						C620.342,437.521,620.479,437.356,620.472,437.179z"/>
				</g>
			</g>
			<g>
				<path style="fill:#00ECEB;" d="M631.896,327.088c1.724-0.457,3.11-1.468,3.85-2.827c0.747-1.356,0.891-3.045,0.276-4.779v0
					c-1.142-3.41-4.927-5.751-8.607-4.963c-1.822,0.425-3.658,0.874-5.508,1.346c-3.096,0.8-5.85-2.443-4.304-5.253l0.18-0.327
					c0.579-1.101,1.353-2.074,2.181-2.977c0.834-0.899,1.754-1.708,2.742-2.412c1.946-1.429,4.304-2.347,6.76-2.775
					c1.663-0.288,3.313-0.557,4.951-0.81l1.226-0.186l1.249-0.16l2.488-0.297c1.652-0.189,3.291-0.362,4.916-0.517l2.427-0.221
					c0.802-0.072,1.641-0.109,2.454-0.159c1.828-0.103,3.319-0.888,4.269-2.102c0.483-0.601,0.8-1.337,1.016-2.101
					c0.209-0.769,0.258-1.616,0.121-2.51l0,0c-0.555-3.572-3.865-6.546-7.597-6.404c-1.888,0.076-3.83,0.143-5.697,0.31
					c-1.576,0.125-2.913-0.725-3.601-1.929c-0.344-0.602-0.526-1.293-0.499-1.991c0.016-0.348,0.076-0.703,0.208-1.038
					c0.135-0.332,0.33-0.655,0.588-0.957l2.775-3.245c0.928-1.079,1.831-2.18,2.82-3.204c1.276-1.37,1.851-3.144,1.776-4.93
					c-0.078-1.784-0.808-3.578-2.199-4.93l0,0c-1.391-1.352-3.192-1.995-5.002-1.916c-1.808,0.076-3.624,0.874-4.991,2.345
					c-1.058,1.099-2.028,2.275-3.021,3.43l-2.97,3.475c-0.276,0.323-0.583,0.587-0.909,0.795c-0.323,0.211-0.653,0.376-0.999,0.482
					c-0.69,0.215-1.418,0.219-2.091,0.035c-1.346-0.367-2.473-1.484-2.612-3.188c-0.187-2.057-0.261-4.061-0.351-6.114
					c-0.167-4.028-3.477-7.003-7.597-6.404l0,0c-1.029,0.149-2.01,0.507-2.9,1.023c-0.896,0.512-1.641,1.229-2.284,2.03
					c-1.271,1.613-2.002,3.656-1.869,5.711c0.065,0.924,0.11,1.828,0.201,2.757l0.271,2.768c0.188,1.837,0.39,3.657,0.605,5.46
					l0.333,2.692l0.177,1.338l0.21,1.351c0.283,1.797,0.579,3.576,0.887,5.338c0.46,2.611,0.388,5.223-0.011,7.822
					c-0.216,1.29-0.55,2.555-1.001,3.782c-0.445,1.23-1.04,2.403-1.661,3.578l-0.192,0.349c-1.627,2.954-5.97,2.597-6.823-0.678
					c-0.506-1.969-0.999-3.962-1.477-5.977c-0.85-3.913-4.635-6.253-8.607-4.963l0,0c-1.938,0.669-3.529,2.13-4.515,3.925
					c-0.98,1.798-1.392,3.904-0.839,5.93c0.945,3.608,1.917,7.135,2.959,10.6c1.114,3.5,2.268,6.925,3.458,10.273
					c0.425,1.232,0.795,2.521,1.029,3.814c0.236,1.294,0.353,2.6,0.35,3.902c0.003,1.304-0.141,2.595-0.36,3.885
					c-0.2,1.298-0.521,2.579-0.966,3.83l-0.134,0.375c-0.569,1.599-1.937,2.478-3.342,2.593c-1.404,0.113-2.842-0.546-3.529-2.086
					c-0.823-1.845-1.636-3.716-2.439-5.612c-1.581-3.73-5.715-5.376-9.339-3.391l0,0c-1.81,0.99-3.146,2.698-3.829,4.63
					c-0.662,1.939-0.588,4.124,0.251,6.007c0.761,1.69,1.529,3.36,2.305,5.01c0.781,1.652,1.642,3.305,2.47,4.926
					c0.837,1.624,1.681,3.227,2.531,4.809l1.284,2.359l1.362,2.346c1.347,2.299,2.245,4.792,2.664,7.351
					c0.485,2.574,0.546,5.226,0.07,7.841l-0.277,1.548l-0.215,1.558c-0.274,1.99,0.257,3.901,1.342,5.349
					c1.084,1.451,2.721,2.439,4.649,2.661l0,0c1.927,0.222,3.778-0.348,5.209-1.416c1.431-1.071,2.44-2.64,2.694-4.494l0.199-1.454
					l0.26-1.445c0.448-2.443,1.363-4.754,2.73-6.755c1.435-1.988,3.267-3.675,5.407-4.924l2.165-1.251l2.226-1.203
					c1.484-0.791,2.961-1.562,4.432-2.312c1.481-0.747,2.914-1.485,4.414-2.183c1.505-0.696,3.004-1.372,4.494-2.028
					c1.676-0.73,2.749-2.001,3.251-3.464c0.523-1.456,0.394-3.135-0.496-4.73v0c-1.782-3.184-5.916-4.831-9.339-3.391
					c-1.738,0.729-3.486,1.483-5.244,2.263c-1.467,0.651-3.019,0.312-4.066-0.578c-1.047-0.888-1.587-2.334-1.052-3.834l0.125-0.351
					c0.417-1.171,0.949-2.286,1.583-3.328c0.653-1.035,1.454-1.978,2.314-2.84c0.866-0.86,1.818-1.628,2.841-2.289
					c1.025-0.66,2.104-1.221,3.305-1.634c3.206-1.133,6.376-2.189,9.506-3.17C625.573,328.738,628.764,327.88,631.896,327.088z"/>
				<path style="fill:#FFFFFF;" d="M631.036,320.206l-0.102-0.291c-2.492,0.57-5.048,1.165-7.565,1.84
					c-2.486,0.691-4.998,1.426-7.534,2.208c-1.258,0.395-2.563,0.783-3.8,1.217c-1.245,0.43-2.495,0.872-3.751,1.326
					c-2.502,0.912-5.071,1.852-7.577,2.874c4.734-11.286,10.508-22.129,17.134-32.414c2.697-0.566,5.366-1.087,8.003-1.565
					c1.304-0.249,2.666-0.441,3.998-0.638c1.335-0.194,2.663-0.378,3.982-0.551c5.22-0.736,10.573-1.096,15.678-1.372l-0.052-0.307
					c-2.537,0.13-5.109,0.299-7.716,0.509c-1.296,0.111-2.632,0.208-3.92,0.358c-1.289,0.15-2.587,0.309-3.892,0.48
					c-2.603,0.346-5.273,0.71-7.909,1.161c-2.609,0.47-5.249,0.983-7.918,1.54c6.299-9.729,13.401-18.94,21.232-27.484l-0.24-0.22
					c-7.844,8.558-14.956,17.783-21.266,27.527c-0.552-2.645-1.075-5.334-1.569-8.065c-0.466-2.713-0.837-5.425-1.212-8.203
					c-0.183-1.386-0.358-2.783-0.525-4.189c-0.168-1.407-0.271-2.784-0.396-4.193c-0.236-2.808-0.438-5.657-0.604-8.545
					l-0.337,0.056c0.354,5.848,0.754,11.461,1.555,17.1c0.186,1.399,0.379,2.788,0.581,4.165c0.206,1.38,0.397,2.734,0.661,4.122
					c0.5,2.756,1.031,5.469,1.591,8.137c-6.636,10.301-12.419,21.161-17.161,32.464c-1.028-2.518-1.953-5.049-2.901-7.646
					c-0.469-1.296-0.932-2.604-1.39-3.924c-0.466-1.323-0.852-2.623-1.272-3.954c-0.822-2.652-1.62-5.351-2.392-8.094
					c-0.741-2.727-1.392-5.466-2.05-8.267l-0.325,0.112c2.534,11.25,6.079,22.079,10.157,32.2
					c-4.863,11.629-8.702,23.687-11.433,35.992c-5.901-9.179-11.021-19.047-15.606-29.6l-0.303,0.167
					c4.654,10.666,9.819,20.622,15.808,29.883c-0.27,1.232-0.562,2.46-0.814,3.697l-0.672,3.725l-0.672,3.725
					c-0.123,0.619-0.202,1.245-0.287,1.87l-0.258,1.875l0.322,0.046l0.257-1.872c0.085-0.624,0.164-1.249,0.287-1.867l0.671-3.719
					l0.671-3.719c0.252-1.234,0.543-2.46,0.813-3.691c9.153-5.924,18.756-10.852,28.235-14.913l-0.149-0.267
					c-9.407,4.015-18.901,8.888-27.985,14.731c2.726-12.286,6.56-24.325,11.416-35.937
					C610.749,325.697,620.84,322.441,631.036,320.206z"/>
			</g>
			<g>
				<path style="fill:#00A4D0;" d="M558.961,318.904L558.961,318.904L558.961,318.904c-8.84,12.697-16.085,24.563-21.919,35.962
					c-5.83,11.415-10.198,22.414-13.222,33.774c-3.089,11.342-4.835,23.048-5.524,35.846c-0.678,12.787-0.371,26.687,0.899,42.105
					l0,0h0c3.78-0.36,7.582-1.013,11.382-1.945c1.931-0.443,3.716-1.063,5.552-1.709c1.825-0.654,3.645-1.376,5.457-2.163
					c7.156-3.203,13.912-7.631,19.921-13.076c0.762-0.675,1.518-1.363,2.268-2.063c0.708-0.72,1.409-1.453,2.103-2.198
					c1.388-1.49,2.749-3.027,4.079-4.607c0.655-0.794,1.343-1.582,1.95-2.411c0.605-0.829,1.203-1.669,1.791-2.518
					c1.177-1.699,2.321-3.436,3.427-5.207c1.148-1.755,2.059-3.617,3.017-5.476c0.94-1.866,1.841-3.759,2.7-5.677
					c0.45-0.952,0.792-1.941,1.162-2.922c0.363-0.984,0.715-1.973,1.056-2.966c0.682-1.987,1.32-3.992,1.913-6.009
					c0.5-2.042,0.955-4.096,1.363-6.157c0.204-1.03,0.396-2.062,0.576-3.095c0.172-1.035,0.373-2.061,0.462-3.111
					c0.22-2.089,0.392-4.179,0.516-6.265c0.104-2.089,0.252-4.157,0.14-6.251c-0.068-2.087-0.184-4.163-0.349-6.223
					c-0.083-1.03-0.178-2.056-0.285-3.077c-0.108-1.021-0.307-2.048-0.475-3.064c-0.356-2.034-0.761-4.047-1.214-6.032
					c-0.226-0.993-0.465-1.978-0.715-2.957c-0.297-0.982-0.605-1.957-0.925-2.923c-2.462-7.726-6.082-14.948-10.662-21.311
					c-1.171-1.59-2.383-3.128-3.633-4.61c-1.263-1.48-2.496-2.913-3.944-4.266C565.01,323.587,562.05,321.113,558.961,318.904z"/>
				<path style="fill:#FFFFFF;" d="M575.04,420.604c-0.06-0.152-0.224-0.211-0.366-0.132c-5.47,3.11-11.268,5.791-16.838,8.246
					l-2.09,0.906l-2.157,0.847c-1.435,0.556-2.863,1.095-4.283,1.617c-1.42,0.522-2.833,1.028-4.237,1.517
					c-1.407,0.488-2.783,0.971-4.244,1.39c0.506-0.866,0.93-1.775,1.367-2.676l1.312-2.705l1.312-2.705
					c0.432-0.904,0.896-1.794,1.261-2.728l2.326-5.544l1.156-2.775l1.012-2.831l2.024-5.661c0.177-0.469,0.33-0.946,0.466-1.428
					l0.43-1.44l0.859-2.881l0.859-2.881l0.43-1.44l0.357-1.46l1.407-5.845c7.903-4.989,15.613-10.75,23.017-17.276
					c0.122-0.106,0.147-0.298,0.055-0.428c-0.092-0.13-0.265-0.15-0.387-0.044c-1.836,1.596-3.669,3.15-5.498,4.661
					c-1.828,1.511-3.63,2.982-5.571,4.387c-1.905,1.411-3.804,2.78-5.695,4.107c-1.898,1.325-3.742,2.618-5.738,3.836
					c2.58-11.708,4.03-23.665,4.288-35.65c1.434-1.378,2.868-2.789,4.302-4.233l1.073-1.089l1.016-1.102l2.031-2.242
					c0.104-0.116,0.097-0.298-0.014-0.408c-0.112-0.11-0.286-0.104-0.389,0.011c-1.301,1.442-2.559,2.853-3.9,4.233
					c-1.367,1.381-2.736,2.731-4.103,4.051l0.056-2.826l0.028-1.413c0.008-0.471-0.027-0.942-0.038-1.412l-0.203-5.649l-0.101-2.825
					c-0.063-0.94-0.167-1.877-0.249-2.815l-0.521-5.629c-0.014-0.152-0.148-0.261-0.299-0.243c-0.151,0.017-0.262,0.154-0.248,0.305
					c1.349,11.346,1.383,22.829,0.448,34.204c-1.92-2.244-3.846-4.417-5.774-6.517c-2.032-2.105-4.084-4.137-6.124-6.097
					c-0.105-0.101-0.28-0.103-0.389-0.005s-0.113,0.259-0.007,0.36c2.09,2.02,4.252,4.12,6.284,6.293
					c1.988,2.171,3.974,4.418,5.953,6.741c-1.166,13.49-3.844,26.848-7.943,39.753c-1.45-2.736-2.923-5.4-4.415-7.989l-1.123-1.928
					c-0.385-0.641-0.803-1.285-1.205-1.92c-0.811-1.272-1.627-2.526-2.447-3.761c-0.819-1.235-1.643-2.451-2.469-3.648l-1.242-1.782
					c-0.414-0.589-0.88-1.184-1.318-1.768c-1.78-2.342-3.571-4.608-5.369-6.797c-0.089-0.108-0.261-0.137-0.384-0.065
					c-0.123,0.073-0.15,0.219-0.061,0.327c1.826,2.222,3.644,4.523,5.451,6.902l0.677,0.896l0.634,0.895l1.261,1.811
					c0.839,1.217,1.674,2.453,2.506,3.709c0.831,1.256,1.659,2.531,2.482,3.825l0.616,0.974l0.572,0.97l1.138,1.962
					c1.513,2.634,3.006,5.345,4.474,8.132c-3.647,11.193-8.352,22.038-14.063,32.327c-0.699-2.414-1.393-4.765-2.167-7.098
					c-0.827-2.362-1.678-4.677-2.549-6.944l-1.323-3.365c-0.441-1.107-0.892-2.204-1.408-3.318
					c-0.999-2.212-2.017-4.376-3.051-6.491c-0.063-0.128-0.224-0.194-0.36-0.148c-0.136,0.046-0.195,0.187-0.133,0.316
					c1.054,2.154,2.09,4.358,3.107,6.613c0.99,2.242,1.854,4.484,2.754,6.802c0.879,2.309,1.767,4.683,2.573,7.076
					c0.752,2.364,1.48,4.777,2.181,7.237l-1.37,2.471c-0.231,0.41-0.45,0.828-0.692,1.231l-0.753,1.195l-3.011,4.782
					c-0.506,0.794-0.995,1.6-1.514,2.385l-1.638,2.302l-3.276,4.604c-0.088,0.124-0.061,0.298,0.061,0.389
					c0.122,0.091,0.292,0.064,0.38-0.06c2.547-3.614,5.21-7.151,7.476-10.953l1.767-2.807l0.884-1.403
					c0.299-0.465,0.545-0.962,0.82-1.441l3.217-5.801c2.967-0.84,5.736-1.868,8.639-2.911c1.441-0.527,2.889-1.072,4.346-1.633
					c1.448-0.565,2.946-1.129,4.34-1.759c2.836-1.239,5.699-2.547,8.587-3.927l2.17-1.048c0.732-0.351,1.45-0.712,2.141-1.088
					c1.402-0.745,2.809-1.508,4.221-2.288C575.032,420.943,575.099,420.756,575.04,420.604z"/>
			</g>
		</g>
		<path style="fill:#004D7F;" d="M634.998,468.152H98.882c-1.4,0-2.535-1.135-2.535-2.535l0,0c0-1.4,1.135-2.535,2.535-2.535
			h536.116c1.4,0,2.535,1.135,2.535,2.535l0,0C637.533,467.018,636.398,468.152,634.998,468.152z"/>
	</g>
	<g>
		<g>
			<path style="fill:#004D7F;" d="M339.506,93.203c-12.348,0-17.805-0.524-24.424-4.965v17.157h24.424h24.424V88.239
				C357.311,92.679,351.854,93.203,339.506,93.203z"/>
			<path style="fill:#003169;" d="M373.118,93.217l-32.564-17.644v-6.319c0-0.571,0.465-1.036,1.036-1.036
				c3.945,0,7.175-3.123,7.348-7.027c0.005-0.109,0.007-3.525,0.007-3.635c0-4.056-3.299-7.355-7.355-7.355h-1.46
				c-1.996,0-3.807,0.802-5.134,2.098h5.134h1.46c2.899,0,5.257,2.359,5.257,5.258c0,0.11-0.003,3.525-0.01,3.634
				c-0.17,2.747-2.458,4.931-5.247,4.931c-1.728,0-3.134,1.406-3.134,3.134v6.319l-32.564,17.644
				c-2.146,1.163-3.185,3.534-2.585,5.899c0.6,2.366,2.643,3.956,5.083,3.956h62.229c2.441,0,4.484-1.59,5.083-3.956
				C376.304,96.751,375.264,94.38,373.118,93.217z M373.671,98.602c-0.278,1.095-1.242,2.373-3.05,2.373h-62.229
				c-1.807,0-2.772-1.278-3.05-2.373c-0.278-1.095-0.038-2.679,1.551-3.54l32.613-17.671l32.613,17.671
				C373.708,95.923,373.948,97.507,373.671,98.602z"/>
			<g>
				<path style="fill:#006895;" d="M401.363,118.741c-3.942-11.358-12.292-20.649-23.167-25.776l-8.588-4.049
					c-1.77-0.834-3.762-1.072-5.678-0.678l-0.195,0.377c-3.866,7.451-11.561,12.128-19.955,12.128h-4.273h-4.273
					c-8.395,0-16.09-4.677-19.955-12.128l-0.195-0.377c-1.916-0.394-3.909-0.156-5.678,0.678l-8.588,4.049
					c-10.874,5.127-19.225,14.418-23.167,25.776l-16.876,48.629l25.063,8.631v91.182c0,0,22.066,4.908,53.671,4.908
					s53.67-4.908,53.67-4.908v-91.182l25.063-8.631L401.363,118.741z"/>
				<path style="fill:#004D7F;" d="M388.997,189.169c-3.326-3.797-5.562-8.423-6.473-13.387l-2.353-12.828
					c-5.234-3.973-8.308-10.165-8.308-16.736v-18.928l15.503,50.713l5.81-2.001v91.182c-2.763-7.199-4.18-14.843-4.18-22.554
					V189.169z"/>
				<path style="fill:#004D7F;" d="M290.015,189.169c3.326-3.797,5.562-8.423,6.473-13.387l2.353-12.828
					c5.234-3.973,8.308-10.165,8.308-16.736v-18.928l-15.503,50.713l-5.81-2.001v91.182c2.763-7.199,4.18-14.843,4.18-22.554
					V189.169z"/>
			</g>
			<path style="fill:#004D7F;" d="M410.069,89.183c-6.757,5.943-16.27,5.331-26.503,5.331c-10.233,0-19.746,0.612-26.503-5.331
				l-0.41,19.49l26.912,0.369l26.912-0.369L410.069,89.183z"/>
			<path style="fill:#003169;" d="M416.843,93.217l-32.564-17.644v-6.319c0-0.571,0.465-1.036,1.036-1.036
				c3.945,0,7.175-3.123,7.348-7.027c0.005-0.109,0.007-3.525,0.007-3.635c0-4.056-3.299-7.355-7.355-7.355h-1.46
				c-1.996,0-3.807,0.802-5.134,2.098h5.134h1.46c2.899,0,5.257,2.359,5.257,5.258c0,0.11-0.003,3.525-0.01,3.634
				c-0.169,2.747-2.458,4.931-5.247,4.931c-1.728,0-3.134,1.406-3.134,3.134v6.319l-32.564,17.644
				c-2.146,1.163-3.185,3.534-2.585,5.899c0.6,2.366,2.642,3.956,5.083,3.956h62.23c2.441,0,4.484-1.59,5.083-3.956
				C420.028,96.751,418.989,94.38,416.843,93.217z M417.395,98.602c-0.278,1.095-1.242,2.373-3.05,2.373h-62.23
				c-1.807,0-2.772-1.278-3.05-2.373c-0.278-1.095-0.038-2.679,1.551-3.54l32.613-17.671l32.613,17.671
				C417.433,95.923,417.673,97.507,417.395,98.602z"/>
			<path style="fill:#00A4D0;" d="M411.586,239.248l-0.733-26.696c-0.687-25.001,4.928-49.772,16.327-72.034l11.342-22.149
				l-16.464-22.986c-1.149-1.604-2.675-2.899-4.444-3.771l-2.438-1.202c-1.794-0.885-3.78-1.306-5.779-1.227
				c-2.941,8.328-10.814,13.896-19.646,13.896h-6.521h-6.521c-8.832,0-16.704-5.569-19.646-13.896
				c-1.999-0.079-3.985,0.342-5.779,1.227l-2.438,1.202c-1.769,0.872-3.295,2.168-4.444,3.771l-16.464,22.986l11.342,22.149
				c11.399,22.262,17.014,47.033,16.327,72.034l-0.733,26.696c-0.369,13.436-2.531,26.767-6.494,39.61
				c-3.966,12.854-8.814,30.275-10.775,44.224c4.161-0.849,8.049,2.222,10.923,5.349c2.874,3.127,5.81,6.746,9.987,7.508
				c3.555,0.648,7.088-0.972,10.339-2.549c4.493-2.179,9.882-4.141,14.375-6.32c4.493,2.179,9.882,4.141,14.375,6.32
				c3.251,1.577,6.784,3.196,10.339,2.549c4.178-0.761,7.114-4.381,9.987-7.508c2.874-3.127,6.762-6.198,10.923-5.349
				c-1.961-13.949-6.809-31.37-10.775-44.224C414.117,266.015,411.955,252.684,411.586,239.248z"/>
			<g>
				<path style="fill:#004D7F;" d="M471.054,89.183c-6.757,5.943-16.27,5.331-26.503,5.331c-10.233,0-19.746,0.612-26.503-5.331
					l-0.41,19.49l26.912,0.369l26.913-0.369L471.054,89.183z"/>
				<path style="fill:#003169;" d="M477.828,93.217l-32.564-17.644v-6.319c0-0.571,0.465-1.036,1.036-1.036
					c3.945,0,7.175-3.123,7.348-7.027c0.005-0.109,0.007-3.525,0.007-3.635c0-4.056-3.3-7.355-7.355-7.355h-1.459
					c-1.997,0-3.807,0.802-5.134,2.098h5.134h1.459c2.899,0,5.257,2.359,5.257,5.258c0,0.11-0.003,3.525-0.01,3.634
					c-0.169,2.747-2.458,4.931-5.247,4.931c-1.728,0-3.134,1.406-3.134,3.134v6.319l-32.564,17.644
					c-2.146,1.163-3.185,3.534-2.585,5.899c0.6,2.366,2.642,3.956,5.083,3.956h62.23c2.441,0,4.484-1.59,5.083-3.956
					C481.013,96.751,479.974,94.38,477.828,93.217z M478.38,98.602c-0.277,1.095-1.242,2.373-3.05,2.373H413.1
					c-1.807,0-2.772-1.278-3.05-2.373s-0.038-2.679,1.551-3.54l32.613-17.671l32.613,17.671
					C478.418,95.923,478.658,97.507,478.38,98.602z"/>
				<path style="fill:#006895;" d="M489.903,103.349c-2.809-4.911-6.799-9.045-11.607-12.026l-1.756-1.089
					c-1.637-1.015-3.59-1.389-5.486-1.051l-0.871,2.502c-2.373,6.818-8.802,11.388-16.022,11.388h-9.611h-9.61
					c-7.22,0-13.648-4.569-16.022-11.388l-0.871-2.502c-1.896-0.338-3.849,0.036-5.486,1.051l-1.756,1.089
					c-4.809,2.981-8.798,7.115-11.607,12.026l-19.493,34.079l21.151,11.1c-0.262,13.897,9.093,28.842,9.093,28.842h34.6h34.6
					c0,0,9.355-14.946,9.093-28.842l21.151-11.1L489.903,103.349z"/>
				<path style="fill:#004D7F;" d="M479.461,177.37h-34.91h-34.91c-0.941,0-1.704,0.763-1.704,1.704
					c0,0.941,0.763,1.704,1.704,1.704h34.91h34.91c0.941,0,1.704-0.763,1.704-1.704C481.165,178.133,480.402,177.37,479.461,177.37z
					"/>
				<path style="fill:#006895;" d="M497.119,310.895c-3.741-13.735-9.031-27.165-10.542-41.32
					c-1.611-15.094,1.151-30.267,2.033-45.421c0.882-15.154-0.543-30.871-9.15-43.375h-34.91h-34.91
					c-8.607,12.504-10.032,28.221-9.15,43.375c0.883,15.154,3.645,30.327,2.034,45.421c-1.511,14.155-6.8,27.585-10.542,41.32
					c-3.042,11.167-5.036,23.078-3.14,34.359c0.724,4.306,4.656,7.291,9.005,6.907c1.123-0.099,2.21-0.235,3.194-0.47
					c3.186-0.763,6.496-1.529,9.706-0.873c4.183,0.855,7.521,3.978,11.497,5.534c6.9,2.7,13.922-1.995,22.306-1.995
					c8.383,0,15.406,4.695,22.306,1.995c3.976-1.556,7.314-4.679,11.497-5.534c3.21-0.656,6.52,0.11,9.706,0.873
					c0.985,0.236,2.071,0.371,3.194,0.47c4.349,0.384,8.281-2.601,9.005-6.907C502.155,333.973,500.161,322.062,497.119,310.895z"/>
			</g>
			<path style="fill:#00CFE3;" d="M247.945,52.299h-12.421c-2.245,0-4.064,2.641-4.064,5.9c0,3.258,1.82,5.9,4.064,5.9h12.421
				c2.245,0,4.064-2.641,4.064-5.9C252.01,54.941,250.19,52.299,247.945,52.299z"/>
			<g>
				<path style="fill:#00A4D0;" d="M256.221,44.525h-7.243c-4,0-7.243,3.243-7.243,7.243v411.315h14.486V51.768
					c0-0.601-0.082-1.182-0.22-1.741h0.22V44.525z"/>
				<path style="fill:#0087B4;" d="M263.464,463.083h-14.486V51.768c0-4,3.243-7.243,7.243-7.243l0,0c4,0,7.243,3.243,7.243,7.243
					V463.083z"/>
			</g>
			<g>
				<path style="fill:#00CFE3;" d="M258.349,52.299c-2.244,0-4.064,2.641-4.064,5.9c0,3.258,1.82,5.9,4.064,5.9h225.583V52.299
					H258.349z"/>
				<path style="fill:#FFFFFF;stroke:#222221;stroke-width:0.2622;stroke-miterlimit:10;" d="M487.997,58.199
					c0,3.258-1.82,5.9-4.064,5.9c-2.245,0-4.064-2.641-4.064-5.9c0-3.258,1.82-5.9,4.064-5.9
					C486.177,52.299,487.997,54.941,487.997,58.199z"/>
			</g>
			<g>
				<path style="fill:#00A4D0;" d="M485.568,44.525h-7.243c-4,0-7.243,3.243-7.243,7.243v411.315h14.486V51.768
					c0-0.601-0.081-1.182-0.219-1.741h0.219V44.525z"/>
				<path style="fill:#0087B4;" d="M492.811,463.083h-14.486V51.768c0-4,3.243-7.243,7.243-7.243h0c4,0,7.243,3.243,7.243,7.243
					V463.083z"/>
			</g>
			<g>
				<path style="fill:#00CFE3;" d="M488.11,52.299c-2.245,0-4.064,2.641-4.064,5.9c0,3.258,1.82,5.9,4.064,5.9h12.421V52.299H488.11
					z"/>
				<path style="fill:#00A4D0;" d="M504.595,58.199c0,3.258-1.82,5.9-4.064,5.9c-2.245,0-4.064-2.641-4.064-5.9
					c0-3.258,1.82-5.9,4.064-5.9C502.775,52.299,504.595,54.941,504.595,58.199z"/>
			</g>
			<g>
				<path style="fill:#00A4D0;" d="M242.281,452.945h-47.191c-5.599,0-10.138,4.539-10.138,10.138h47.191
					C232.142,457.484,236.681,452.945,242.281,452.945z"/>
				<path style="fill:#0087B4;" d="M304.86,452.945h-47.191h-15.388c-5.599,0-10.138,4.539-10.138,10.138h35.664h47.191
					C314.998,457.484,310.459,452.945,304.86,452.945z"/>
			</g>
			<g>
				<path style="fill:#00A4D0;" d="M476.212,452.945H429.02c-5.599,0-10.138,4.539-10.138,10.138h47.191
					C466.073,457.484,470.612,452.945,476.212,452.945z"/>
				<path style="fill:#0087B4;" d="M538.791,452.945h-47.191h-15.388c-5.599,0-10.138,4.539-10.138,10.138h35.664h47.191
					C548.929,457.484,544.39,452.945,538.791,452.945z"/>
			</g>
			<path style="fill:#003169;" d="M437.485,57.557v1.412c0,0.579,0.47,1.049,1.049,1.049c0.579,0,1.049-0.47,1.049-1.049v-1.412
				c0-2.899,2.359-5.258,5.258-5.258h-5.134C438.338,53.636,437.485,55.498,437.485,57.557z"/>
			<path style="fill:#003169;" d="M376.51,57.557v1.412c0,0.579,0.47,1.049,1.049,1.049s1.049-0.47,1.049-1.049v-1.412
				c0-2.899,2.359-5.258,5.258-5.258h-5.134C377.363,53.636,376.51,55.498,376.51,57.557z"/>
			<path style="fill:#003169;" d="M332.776,57.557v1.412c0,0.579,0.47,1.049,1.049,1.049s1.049-0.47,1.049-1.049v-1.412
				c0-2.899,2.359-5.258,5.258-5.258h-5.134C333.629,53.636,332.776,55.498,332.776,57.557z"/>
		</g>
		<g>
			<g>
				<rect x="354.187" y="361.723" style="fill:#0087B4;" width="66.788" height="101.36"/>
				<rect x="274.965" y="361.723" style="fill:#00A4D0;" width="79.221" height="101.36"/>
				<rect x="306.28" y="361.723" style="opacity:0.5;fill:#FFFFFF;" width="13.181" height="12.437"/>
				<rect x="387.573" y="361.723" style="opacity:0.5;fill:#FFFFFF;" width="7.654" height="12.437"/>
				<rect x="306.28" y="452.207" style="opacity:0.5;fill:#FFFFFF;" width="13.181" height="10.876"/>
				<rect x="387.573" y="452.207" style="opacity:0.5;fill:#FFFFFF;" width="7.654" height="10.876"/>
				<path style="opacity:0.2;fill:#422C4F;" d="M354.187,361.723v101.36h66.788v-2.295h-37.165
					c-13.855,0-25.087-11.232-25.087-25.087v-73.978H354.187z"/>
			</g>
			<g>
				<rect x="414.556" y="383.145" style="fill:#00A4D0;" width="66.788" height="79.938"/>
				<rect x="335.335" y="383.145" style="fill:#00B7E2;" width="79.221" height="79.938"/>
				<rect x="366.65" y="383.145" style="opacity:0.5;fill:#FFFFFF;" width="13.181" height="12.438"/>
				<rect x="447.942" y="383.145" style="opacity:0.5;fill:#FFFFFF;" width="7.654" height="12.438"/>
				<rect x="366.65" y="452.207" style="opacity:0.5;fill:#FFFFFF;" width="13.181" height="10.876"/>
				<rect x="447.942" y="452.207" style="opacity:0.5;fill:#FFFFFF;" width="7.654" height="10.876"/>
				<path style="opacity:0.2;fill:#422C4F;" d="M414.556,383.145v79.938h66.788v-2.295h-37.165
					c-13.855,0-25.087-11.232-25.087-25.087v-52.556H414.556z"/>
			</g>
		</g>
		<g>
			<g>
				<g>
					<g>
						<path style="fill:#454F6B;" d="M585.355,251.28l-76.301-1.368l-25.899,84.072c-3.139,10.19-3.49,21.035-1.015,31.407
							l14.154,59.323h35.564c-5.148-38.806-16.685-74.815-16.685-74.815c11.537-19.228,29.017-61.53,29.017-61.53L529.588,330.5
							c-4.668,13.469-4.649,28.119,0.053,41.576l18.393,52.638h35.31c-3.846-27.619-20.976-71.319-20.976-71.319
							C596.28,268.092,590.757,273.264,585.355,251.28z"/>
						<polygon style="fill:#797C99;" points="537.197,437.999 496.992,437.999 493.496,424.714 533.701,424.714 						"/>
						<polygon style="fill:#797C99;" points="588.382,437.999 548.178,437.999 544.682,424.714 584.886,424.714 						"/>
						<g>
							<path style="fill:#797C99;" d="M577.105,421.221c-9.065-38.334-20.78-67.823-20.898-68.116l-0.057-0.145l0.056-0.144
								c5.494-14.136,10.322-25.946,14.201-35.435c15.371-37.598,19.023-46.532,10.524-64.917l0.715-0.33
								c8.641,18.695,4.585,28.619-10.511,65.544c-3.864,9.454-8.671,21.213-14.141,35.279c0.902,2.288,12.125,31.075,20.877,68.083
								L577.105,421.221z"/>
						</g>
						<g>
							<path style="fill:#797C99;" d="M581.771,275.414C581.771,275.414,581.771,275.414,581.771,275.414
								c-6.417-0.01-12.661-4.138-15.186-10.036c-1.798-4.199-1.771-8.977-1.747-13.192c0.001-0.216,0.177-0.391,0.393-0.391
								c0.26-0.02,0.393,0.177,0.393,0.395c-0.023,4.139-0.049,8.829,1.684,12.879c2.405,5.618,8.352,9.549,14.464,9.559
								c0.217,0,0.392,0.177,0.392,0.394C582.164,275.238,581.988,275.414,581.771,275.414z"/>
						</g>
						<g>
							<path style="fill:#797C99;" d="M582.945,272.09C582.945,272.09,582.945,272.09,582.945,272.09
								c-5.505-0.008-10.863-3.549-13.029-8.61c-1.541-3.602-1.518-7.69-1.497-11.295c0.001-0.217,0.177-0.391,0.393-0.391
								c0.001,0,0.001,0,0.002,0c0.217,0.001,0.392,0.178,0.391,0.395c-0.021,3.529-0.043,7.529,1.434,10.982
								c2.047,4.78,7.107,8.124,12.307,8.132c0.217,0,0.392,0.177,0.392,0.394C583.338,271.914,583.162,272.09,582.945,272.09z"/>
						</g>
						<path style="fill:#422C4F;" d="M545.631,285.179l25.04-4.326C558.61,289.767,551.662,289.636,545.631,285.179z"/>
						<g>
							<path style="fill:#797C99;" d="M528.774,312.569c0.198-1.053,0.39-2.106,0.573-3.159
								c-5.645,12.497-12.705,26.851-20.096,38.726l-0.096,0.156l0.056,0.173c0.113,0.348,11.317,35.169,16.496,72.719l0.778-0.107
								c-4.999-36.246-15.602-69.957-16.471-72.68C516.839,337.41,523.375,324.336,528.774,312.569z"/>
							<path style="fill:#422C4F;" d="M495.9,292.612l-3.517,11.416c3.218,0.186,6.513,1.393,9.701,2.2
								c9.445,2.391,19.77,1.104,28.34-3.531c-0.323,2.237-0.687,4.476-1.076,6.714c2.728-6.039,5.125-11.644,7.068-16.325
								C523.341,291.445,508.789,290.932,495.9,292.612z"/>
							<path style="fill:#422C4F;" d="M523.589,334.17c7.222-14.582,14.651-31.734,18.296-40.321
								c-1.526-0.235-3.085-0.452-4.662-0.656c-2.259,5.447-5.14,12.164-8.449,19.377
								C527.407,319.838,525.693,327.077,523.589,334.17z"/>
							<path style="fill:#454F6B;" d="M537.224,293.192c-0.27-0.035-0.536-0.073-0.808-0.107
								c-1.943,4.681-4.341,10.285-7.068,16.325c-0.183,1.054-0.375,2.107-0.573,3.159
								C532.084,305.357,534.964,298.64,537.224,293.192z"/>
						</g>
					</g>
					<g>
						<path style="fill:#FFFFFF;" d="M480.13,457.052c-0.224,0.713-0.4,1.446-0.523,2.198l-0.627,3.833h53.227
							c0.164-2.125,0.184-4.131,0.114-6.031H480.13z"/>
						<path style="fill:#FFFFFF;" d="M492.739,445.999c-0.438,0.172-0.88,0.336-1.336,0.47l-0.661,0.193
							c-5.095,1.489-9.046,5.421-10.612,10.39h22.894C501.32,452.172,497.48,448.057,492.739,445.999z"/>
						<path style="fill:#422C4F;" d="M527.619,437.999h-26.351c-1.716,3.681-4.782,6.529-8.529,8
							c4.742,2.058,8.582,6.173,10.286,11.053h29.297C531.89,445.243,527.619,437.999,527.619,437.999z"/>
						<g>
							<path style="fill:#FFFFFF;" d="M501.333,450.039c0.208,0.249,0.506,0.377,0.807,0.377c0.237,0,0.474-0.08,0.671-0.243
								c0.445-0.371,0.505-1.032,0.134-1.478c-1.716-2.058-3.933-3.731-6.38-4.857c-0.68,0.52-1.407,0.978-2.167,1.383
								C497.072,446.173,499.519,447.861,501.333,450.039z"/>
							<path style="fill:#FFFFFF;" d="M503.738,446.671c0.207,0.249,0.505,0.377,0.806,0.377c0.237,0,0.474-0.08,0.671-0.244
								c0.445-0.371,0.505-1.031,0.133-1.477c-1.568-1.881-3.557-3.437-5.755-4.552c-0.435,0.581-0.914,1.123-1.423,1.635
								C500.305,443.405,502.238,444.871,503.738,446.671z"/>
							<path style="fill:#FFFFFF;" d="M506.14,443.304c0.208,0.249,0.506,0.377,0.807,0.377c0.237,0,0.474-0.08,0.671-0.243
								c0.444-0.371,0.505-1.032,0.134-1.478c-1.308-1.569-2.909-2.91-4.678-3.961h-1.807c-0.175,0.376-0.374,0.737-0.577,1.095
								C502.78,440.087,504.668,441.537,506.14,443.304z"/>
						</g>
					</g>
					<g>
						<path style="fill:#FFFFFF;" d="M532.359,457.052c-0.224,0.713-0.4,1.446-0.523,2.198l-0.626,3.833h53.227
							c0.164-2.125,0.184-4.131,0.114-6.031H532.359z"/>
						<path style="fill:#FFFFFF;" d="M544.968,445.999c-0.438,0.172-0.88,0.336-1.336,0.47l-0.661,0.193
							c-5.095,1.489-9.046,5.421-10.612,10.39h22.894C553.55,452.172,549.71,448.057,544.968,445.999z"/>
						<path style="fill:#422C4F;" d="M579.848,437.999h-26.351c-1.716,3.681-4.782,6.529-8.529,8
							c4.742,2.058,8.582,6.173,10.286,11.053h29.297C584.119,445.243,579.848,437.999,579.848,437.999z"/>
						<g>
							<path style="fill:#FFFFFF;" d="M553.563,450.039c0.208,0.249,0.506,0.377,0.807,0.377c0.237,0,0.474-0.08,0.671-0.243
								c0.445-0.371,0.505-1.032,0.134-1.478c-1.716-2.058-3.933-3.731-6.38-4.857c-0.68,0.52-1.407,0.978-2.167,1.383
								C549.302,446.173,551.748,447.861,553.563,450.039z"/>
							<path style="fill:#FFFFFF;" d="M555.967,446.671c0.207,0.249,0.505,0.377,0.806,0.377c0.237,0,0.474-0.08,0.671-0.244
								c0.445-0.371,0.505-1.031,0.133-1.477c-1.568-1.881-3.557-3.437-5.755-4.552c-0.435,0.581-0.914,1.123-1.423,1.635
								C552.535,443.405,554.467,444.871,555.967,446.671z"/>
							<path style="fill:#FFFFFF;" d="M558.369,443.304c0.208,0.249,0.506,0.377,0.807,0.377c0.237,0,0.474-0.08,0.671-0.243
								c0.445-0.371,0.505-1.032,0.134-1.478c-1.308-1.569-2.909-2.91-4.677-3.961h-1.807c-0.175,0.376-0.374,0.737-0.576,1.095
								C555.009,440.087,556.897,441.537,558.369,443.304z"/>
						</g>
					</g>
				</g>
				<g>
					<path style="fill:#7DD3E9;" d="M495.675,140.05L495.675,140.05c-7.685,0.873-13.715,6.934-14.641,14.612
						c-1.199,9.946-1.085,20.616-1.085,20.616l20.321,0.257L495.675,140.05z"/>
					<path style="fill:#5FA5CC;" d="M496.72,148.117l-1.401,1.24c-3.541,5.362-4.721,17.162-5.092,26.051l10.043,0.127
						L496.72,148.117z"/>
				</g>
				<g>
					<path style="fill:#7DD3E9;" d="M495.675,140.05l27.68-3.146l38.663,3.146c16.257,20.452,22.549,102.11,23.336,111.23
						c-25.958,7.285-66.599,2.828-76.301-1.368c-0.787-48.245-13.801-76.039-13.801-91.246
						C495.253,143.458,495.675,140.05,495.675,140.05z"/>
					<path style="fill:#5FA5CC;" d="M566.077,146.781l-10.165,5.855c-3.507,6.293-1.147,15.383-0.623,20.19
						c0.524,4.807-25.398,54.959-25.398,54.959l-21.189,12.126c0.171,3.236,0.296,6.561,0.352,10.002
						c9.702,4.195,50.343,8.653,76.301,1.368C584.637,242.962,579.337,174.308,566.077,146.781z"/>
				</g>
				<g>
					<path style="fill:#F0BF9C;" d="M514.516,125.366l0.608,9.461c0.108,1.674-1.118,3.139-2.785,3.328l-0.433,0.049l1.901,6.225
						c1.489,4.875,5.988,8.206,11.086,8.206l0,0c5.107,0,9.613-3.343,11.094-8.231l1.914-6.317l-1.988-0.162
						c-1.538-0.125-2.758-1.347-2.881-2.885l-1.56-19.458L514.516,125.366z"/>
					<path style="fill:#E78882;" d="M531.472,115.583c-2.054,8.21-8.706,13.974-16.523,16.511l-0.432-6.727L531.472,115.583z"/>
				</g>
				<g>
					<path style="fill:#F0BF9C;" d="M495.808,92.157l-0.537,14.779c-0.161,4.445,0.731,8.866,2.604,12.901v0
						c2.442,5.259,7.586,8.741,13.375,9.054l0,0c3.342,0.181,6.654-0.713,9.451-2.549l7.092-4.656
						c3.662-2.404,6.077-6.301,6.601-10.65l1.891-15.712c1.391-11.557-7.192-21.918-18.806-22.701l0,0
						C506.038,71.85,496.224,80.696,495.808,92.157z"/>
					<path style="fill:#8C404C;" d="M533.021,114.005L533.021,114.005c-1.093-1.711-1.635-3.717-1.551-5.746l0.309-7.515
						c-2.242-0.228-4.16-2.185-5.191-4.189c-1.031-2.004-1.216-4.362-0.902-6.593c0.314-2.232,1.098-4.368,1.924-6.465
						c-2.51,3.325-6.456,5.936-10.366,7.376c-1.913,0.704-4.059,1.133-5.972,0.429c-1.913-0.704-3.387-2.88-2.709-4.803
						c-3.251,2.598-7.154,5.543-11.223,6.414c-4.069,0.871-8.981-0.678-10.568-4.525c-0.852-2.065-0.619-4.456,0.199-6.535
						c0.818-2.079,2.176-3.896,3.586-5.63c4.652-5.72,10.257-10.964,17.178-13.506c6.921-2.542,15.357-1.906,20.818,3.049
						c-0.348-1.918-0.42-3.408-0.768-5.326c1.146,0.295,2.105,1.502,2.602,2.575s0.487,2.37-0.028,3.435
						c0.635-0.956,1.655-1.566,2.764-1.86c1.109-0.295,2.324-0.169,3.35,0.345c-1.272,0.83-2.75,1.703-4.022,2.534
						c3.197-1.122,7.643-0.017,10.317,2.063c2.467,1.919,3.938,4.914,4.504,7.988c0.566,3.074,0.303,6.242-0.188,9.329
						c-1.186,7.447-3.7,14.68-7.389,21.257C538.341,110.52,535.79,114.005,533.021,114.005z"/>
					<g>
						<path style="fill:#F0BF9C;" d="M537.651,105.121c1.938-1.061,4.656-0.91,6.059,0.797c0.848,1.031,1.1,2.445,1.007,3.777
							c-0.25,3.577-2.995,6.84-6.476,7.7c-1.19,0.294-2.527,0.305-3.555-0.364c-0.997-0.649-1.535-1.843-1.665-3.026
							C532.657,110.704,534.729,106.72,537.651,105.121z"/>
						<path style="fill:#E78882;" d="M542.267,107.808c-0.492-0.469-1.2-0.671-1.879-0.635c-0.679,0.036-1.331,0.294-1.914,0.643
							c-1.845,1.104-3.054,3.201-3.086,5.351c-0.013,0.87,0.24,1.863,1.017,2.256c0.525,0.266,1.182,0.18,1.69-0.117
							c0.509-0.297,0.886-0.778,1.175-1.291c0.428-0.76,0.688-1.678,0.419-2.507c-0.269-0.83-1.212-1.467-2.032-1.169
							c0.308-0.822,0.94-1.55,1.674-2.031S541.39,107.763,542.267,107.808z"/>
					</g>
					<path style="fill:#8C404C;" d="M523.355,97.409H511.61c0.295-1.362,1.621-2.472,2.943-2.913
						c1.321-0.441,2.778-0.321,4.115,0.072C520.319,95.053,522.123,96.207,523.355,97.409z"/>
					<path style="fill:#422C4F;" d="M515.871,105.177L515.871,105.177c-0.748,0-1.355-0.607-1.355-1.355v-1.486
						c0-0.748,0.607-1.355,1.355-1.355l0,0c0.748,0,1.355,0.606,1.355,1.355v1.486C517.226,104.57,516.619,105.177,515.871,105.177z
						"/>
					<path style="fill:#8C404C;" d="M495.675,97.409h7.26c-0.182-1.362-1.002-2.472-1.819-2.913
						c-0.817-0.441-1.717-0.321-2.543,0.072C497.552,95.053,496.437,96.207,495.675,97.409z"/>
					<path style="fill:#422C4F;" d="M499.991,105.177L499.991,105.177c0.517,0,0.936-0.419,0.936-0.936v-2.323
						c0-0.517-0.419-0.936-0.936-0.936l0,0c-0.517,0-0.936,0.419-0.936,0.936v2.323
						C499.054,104.758,499.474,105.177,499.991,105.177z"/>
					<path style="fill:#E78882;" d="M508.619,111.382h-6.47c0.426,0.913,1.277,1.675,2.281,1.758
						c0.711,0.059,1.424-0.151,2.058-0.478C507.122,112.335,508.057,111.821,508.619,111.382z"/>
					<path style="fill:#FFFFFF;" d="M520.729,115.316c-5.161,0.861-10.322,1.722-15.484,2.584c0.862,1.42,2.55,2.597,4.121,3.137
						c1.571,0.54,3.331,0.511,4.884-0.079C516.828,119.978,519.102,117.541,520.729,115.316z"/>
				</g>
				<path style="fill:#7DD3E9;" d="M558.764,139.785l5.767,0.469c7.07,0.575,13.114,5.318,15.353,12.049l12.201,36.429l-3.496,1.049
					l-14.858,5.244l-13.878-20.055l-2.959-12.548C555.112,154.868,555.767,146.944,558.764,139.785L558.764,139.785z"/>
				<g>
					<path style="fill:#F0BF9C;" d="M553.03,165.112l20.701,29.913l14.858-5.244l3.082,21.792
						c1.134,8.02-3.895,15.626-11.718,17.723l0,0c-8.344,2.237-16.96-2.544-19.478-10.807l-12.75-41.835L553.03,165.112z"/>
					<path style="fill:#E78882;" d="M573.73,195.025l10.069,14.55c0.943-7.471-4.213-11.215-6.049-12.096l11.096-5.874l-0.258-1.824
						L573.73,195.025z"/>
				</g>
				<g>
					<g>
						<path style="fill:#6D9B7C;" d="M476.731,162.957l60.166-0.94c7.761-0.121,14.692,4.838,17.083,12.222l16.691,51.551
							c-8.128,9.177-22.549,10.226-22.549,10.226l0.262,58.996c-11.381,4.541-23.987,9.377-36.121,7.674
							c-4.226-0.593-8.329-1.947-12.578-2.34c-7.104-0.657-14.152,1.397-21.262,1.981c-7.11,0.584-15.14-0.758-19.464-6.433
							l0.801-63.469c-13.635-0.079-21.238-10.829-21.238-10.829l16.918-43.792C458.849,168.978,467.272,163.105,476.731,162.957z"/>
						<path style="fill:#547374;" d="M459.76,232.424v-50.946l-4.472,29.166c-0.847,5.528-0.118,11.182,2.104,16.314L459.76,232.424
							z"/>
						<path style="fill:#547374;" d="M548.122,236.016v-54.538l4.892,32.207c0.913,6.008-0.006,12.151-2.635,17.629L548.122,236.016
							z"/>
						<path style="fill:#B0C98F;" d="M504.162,180.429h-1.094c-9.725,0-17.609-7.884-17.609-17.608v0l36.312-0.567v0.567
							C521.771,172.545,513.887,180.429,504.162,180.429z"/>
						<path style="fill:#547374;" d="M488.605,162.771L488.605,162.771l30.019-0.469v0.469c0,8.014-6.497,14.511-14.511,14.511
							h-0.996C495.102,177.283,488.605,170.786,488.605,162.771z"/>
					</g>
					<g>
						<g>
							<polygon style="fill:#B0C98F;" points="509.816,202.633 495.898,202.633 504.027,216.713 517.945,216.713 							"/>
							<polygon style="fill:#D8E29F;" points="498.699,220.838 509.21,202.633 495.292,202.633 487.163,216.713 482.559,215.067 
								487.659,228.224 503.266,222.471 498.699,220.838 							"/>
						</g>
						<g>
							<polygon style="fill:#B0C98F;" points="470.816,245.028 477.775,257.081 485.904,243.001 478.945,230.948 							"/>
							<polygon style="fill:#D8E29F;" points="492.14,245.553 471.118,245.553 478.077,257.606 494.335,257.606 495.212,262.416 
								504.056,251.421 491.271,240.781 492.14,245.553 							"/>
						</g>
						<g>
							<polygon style="fill:#B0C98F;" points="527.031,257.606 533.99,245.553 517.732,245.553 510.773,257.606 							"/>
							<polygon style="fill:#D8E29F;" points="516.823,238.876 527.334,257.081 534.292,245.028 526.163,230.948 529.891,227.784 
								515.947,225.622 513.125,242.015 516.823,238.876 							"/>
						</g>
					</g>
				</g>
				<g>
					<path style="fill:#F0BF9C;" d="M538.368,159.067c-0.557-1.502-2.445-2.174-4.007-1.817c-1.562,0.357-2.828,1.488-3.881,2.696
						c-1.013,1.162-1.897,2.434-2.637,3.786c-1.787,3.263-1.739,7.304,0.195,10.482c0.009,0.016,0.019,0.031,0.029,0.046
						c0.951,1.546,2.415,2.868,4.194,3.233c0.724,0.149,1.5,0.13,2.177-0.167c0.677-0.297,1.24-0.898,1.384-1.624
						c-1.055-2.315-1.499-4.897-1.183-7.421C535.041,165.056,536.598,161.794,538.368,159.067z"/>
					<path style="fill:#F0BF9C;" d="M545.818,160.136c-0.86-0.874-1.738-1.76-2.814-2.346c-1.077-0.587-2.402-0.84-3.539-0.38
						c-1.142,0.461-1.9,1.537-2.55,2.583c-1.46,2.348-2.711,4.827-3.732,7.397c-0.938,2.362,0.602,5.26,1.55,7.618
						c0.426,1.059,0.967,2.115,1.856,2.83c0.89,0.714,2.203,1.004,3.19,0.433c0.745-0.431,1.18-1.27,1.328-2.117
						c0.147-0.848,0.045-1.717-0.057-2.571c-0.203-1.692-0.406-3.385-0.609-5.077C541.762,165.691,543.613,162.327,545.818,160.136z
						"/>
					<path style="fill:#F0BF9C;" d="M550.527,162.439c-0.039-1.152-0.689-2.267-1.672-2.869c-0.984-0.602-2.271-0.673-3.315-0.183
						c-1.055,0.495-1.791,1.475-2.445,2.44c-0.789,1.164-1.526,2.363-2.208,3.593c-0.896,1.617-1.216,3.496-0.933,5.324
						c0.08,0.515,0.155,1.021,0.215,1.499c0.117,0.938,0.237,1.885,0.558,2.775c0.321,0.889,0.866,1.728,1.669,2.228
						c0.802,0.5,1.886,0.603,2.69,0.105c1.026-0.636,1.322-2.004,1.262-3.21s-0.376-2.415-0.182-3.606
						C546.636,167.662,548.896,164.847,550.527,162.439z"/>
					<path style="fill:#F0BF9C;" d="M549.255,174.723c-0.311,0.793-0.717,1.678-1.53,1.931c-0.782,0.243-1.646-0.25-2.071-0.95
						c-0.425-0.7-0.501-1.553-0.511-2.371c-0.034-2.998,0.703-6.002,2.123-8.644c0.487-0.907,1.076-1.795,1.922-2.382
						c0.846-0.587,2-0.82,2.922-0.362c2.216,1.102,0.665,3.803,0.06,5.345C551.198,169.768,550.227,172.245,549.255,174.723z"/>
				</g>
				<g>
					<path style="fill:#F0BF9C;" d="M465.605,162.56c-0.429-0.762-1.222-1.307-2.087-1.435c-0.865-0.127-1.782,0.166-2.412,0.771
						c-0.775,0.744-1.069,1.846-1.29,2.897c-0.186,0.884-0.343,1.775-0.472,2.669c-0.385,2.678,0.749,5.405,3.039,6.846
						c0.012,0.008,0.025,0.016,0.037,0.023c0.881,0.549,1.879,1.016,2.914,0.938s2.074-0.874,2.099-1.912
						c-1.141-0.913-1.849-2.215-2.344-3.59C464.322,167.637,465.036,164.752,465.605,162.56z"/>
					<path style="fill:#F0BF9C;" d="M472.638,160.118c-0.554-0.841-1.243-1.624-2.137-2.087c-0.894-0.464-2.02-0.562-2.897-0.068
						c-0.903,0.509-1.385,1.52-1.772,2.482c-0.773,1.923-1.392,3.907-1.85,5.928c-0.382,1.683-0.097,3.456,0.758,4.954
						c0.352,0.616,0.718,1.212,1.109,1.708c0.636,0.807,1.329,1.606,2.236,2.09c0.907,0.484,2.079,0.594,2.937,0.029
						c0.987-0.65,1.291-2.015,1.033-3.169c-0.259-1.153-0.965-2.148-1.655-3.107C471.163,166.207,471.875,162.788,472.638,160.118z"
						/>
					<path style="fill:#F0BF9C;" d="M480.643,159.607c-0.172-1.706-1.923-2.964-3.637-2.959c-1.714,0.005-3.296,1.036-4.373,2.37
						c-1.077,1.333-1.731,2.951-2.361,4.545c-0.21,0.531-0.421,1.066-0.647,1.593c-0.951,2.213-0.876,4.739,0.125,6.93
						c0.126,0.276,0.252,0.549,0.379,0.819c0.508,1.085,1.031,2.192,1.875,3.042s2.086,1.404,3.248,1.115
						c1.139-0.284,1.973-1.329,2.289-2.46c0.316-1.13,0.194-2.336-0.028-3.489c-0.221-1.151-0.538-2.291-0.609-3.461
						c-0.065-1.078,0.35-2.112,1.015-2.962C478.894,163.444,479.856,161.298,480.643,159.607z"/>
					<path style="fill:#F0BF9C;" d="M482.559,162.866c-0.119,8.779-0.381,10.877-3.659,11.139c-0.799,0.064-1.865-0.134-2.394-0.737
						c-0.529-0.603-0.808-1.383-1.003-2.161c-0.994-3.971,0.058-8.397,2.732-11.496c1.175-1.362,2.786-2.523,4.585-2.508
						c1.266,0.011,2.512,0.646,3.265,1.664c0.753,1.018,0.9,2.52,1.206,4.024L482.559,162.866z"/>
				</g>
			</g>
			<g>
				<g>
					<g>
						<g>
							<path style="fill:#EBA58E;" d="M269.876,453.595c1.944-3.553,4.792-6.6,8.186-8.809c-0.366-0.368-0.717-0.753-1.046-1.161
								l-3.329-4.141h-26.395c0,0-2.191,4.446-3.988,10.413C245.242,452.653,251.781,453.595,269.876,453.595z"/>
							<path style="fill:#FFFFFF;" d="M300.277,463.083l-0.421-2.208c-1.214-6.366-6.461-11.182-12.908-11.847
								c-3.378-0.348-6.51-1.858-8.885-4.241c-3.394,2.209-6.242,5.255-8.186,8.809c-18.095,0-24.634-0.942-26.572-3.697
								c-1.206,4.004-2.235,8.693-2.305,13.185H300.277z"/>
						</g>
						<path style="fill:#DE7274;" d="M273.687,439.485h-26.395C256.644,448.225,273.687,439.485,273.687,439.485z"/>
						<g>
							<path style="fill:#E4E4E0;" d="M242.644,452.261c-0.899,3.427-1.588,7.186-1.645,10.823h8.145
								C247.841,459.041,245.611,455.299,242.644,452.261z"/>
						</g>
					</g>
					<g>
						<path style="fill:#984058;" d="M235.497,230.519l-73.424,1.302c-4.195,36.009,13.984,50.343,29.017,104.182l-10.488,103.482
							h43.7l8.335-76.847c1.901-17.531,1.904-35.216,0.009-52.747l-0.805-7.45l13.048,32.364l-8.001,104.68h40.379l9.161-89.574
							c1.222-11.952,0.072-24.027-3.384-35.533l-25.308-84.253L235.497,230.519z"/>
						<g>
							<path style="fill:#DE7274;" d="M239.369,303.091v2.805l10.634,26.375c0.69,1.711,0.981,3.588,0.84,5.428l-7.351,96.183
								l1.046,0.08l7.351-96.183c0.153-2.001-0.163-4.042-0.913-5.901L239.369,303.091z"/>
							<polygon style="fill:#472948;" points="231.84,302.44 239.369,321.114 239.369,305.896 229.592,281.647 							"/>
							<path style="fill:#472948;" d="M239.369,289.969c0-9.347-2.485-18.526-7.201-26.596c5.49,0.646,10.891-1.777,14.059-6.308
								l6.917-9.892l-25.84,13.316l1.873,17.326l10.191,25.277V289.969z"/>
							<polygon style="fill:#984058;" points="229.178,277.814 229.592,281.647 239.369,305.896 239.369,303.091 							"/>
						</g>
						<g>
							<path style="fill:#DE7274;" d="M179.974,288.033c5.181,12.311,11.053,26.264,16.656,45.795
								c0.418,1.461,0.552,2.978,0.396,4.514l-9.682,95.528l1.044,0.107l9.682-95.528c0.169-1.668,0.024-3.321-0.432-4.909
								c-5.62-19.591-11.505-33.575-16.697-45.913c-3.092-7.346-5.861-13.927-7.982-20.443c-0.424-0.154-0.842-0.32-1.255-0.495
								C173.869,273.502,176.742,280.353,179.974,288.033z"/>
							<path style="fill:#FFFFFF;stroke:#222221;stroke-width:0.2622;stroke-miterlimit:10;" d="M170.171,265.984
								c0.501,0.254,1.014,0.484,1.533,0.704c-0.227-0.714-0.449-1.427-0.659-2.141L170.171,265.984z"/>
							<path style="fill:#472948;" d="M176.062,256.293l-4.272,7.028c0.366,1.288,0.751,2.574,1.17,3.862
								c13.347,4.864,31.19-0.27,31.19-0.27c6.518,7.21,14.515-3.409,14.515-3.409l8.64-3.015L176.062,256.293z"/>
							<path style="fill:#FFFFFF;stroke:#222221;stroke-width:0.2622;stroke-miterlimit:10;" d="M171.045,264.547
								c0.21,0.714,0.433,1.427,0.659,2.141c0.414,0.175,0.832,0.341,1.255,0.495c-0.419-1.288-0.804-2.574-1.17-3.862
								L171.045,264.547z"/>
						</g>
						<g>
							<path style="fill:#472948;" d="M224.181,352.192c-4.285-3.697-9.485-8.664-13.822-14.366
								c-4.379-5.669-7.825-11.982-10.281-17.08c0.387,2.801,1.236,5.996,2.611,9.232c1.367,3.237,3.256,6.508,5.534,9.485
								c2.283,2.974,4.951,5.647,7.721,7.809C218.712,349.44,221.577,351.091,224.181,352.192z"/>
						</g>
						<g>
							<path style="fill:#472948;" d="M280.558,343.617c-4.565-2.876-10.298-6.658-15.532-11.085
								c-5.262-4.393-9.974-9.39-13.594-13.391c2.174,4.931,6.464,10.789,11.943,15.356
								C268.818,339.107,275.327,342.324,280.558,343.617z"/>
						</g>
					</g>
					<g>
						<g>
							<path style="fill:#EBA58E;" d="M215.247,453.595c1.944-3.553,4.792-6.6,8.186-8.809c-0.366-0.368-0.718-0.753-1.046-1.161
								l-3.329-4.141h-26.395c0,0-2.191,4.446-3.988,10.413C190.613,452.653,197.152,453.595,215.247,453.595z"/>
							<path style="fill:#FFFFFF;" d="M245.647,463.083l-0.421-2.208c-1.214-6.366-6.461-11.182-12.908-11.847
								c-3.378-0.348-6.51-1.858-8.885-4.241c-3.394,2.209-6.242,5.255-8.186,8.809c-18.095,0-24.634-0.942-26.572-3.697
								c-1.206,4.004-2.235,8.693-2.305,13.185H245.647z"/>
						</g>
						<path style="fill:#DE7274;" d="M219.058,439.485h-26.395C202.015,448.225,219.058,439.485,219.058,439.485z"/>
					</g>
				</g>
				<g>
					<path style="fill:#EBA58E;" d="M332.331,134.471l-1.436-2.927c-0.561-1.144,0.134-2.507,1.389-2.724l0.514-0.089l-1.449-12.85
						l-0.423,0.035c-1.473,0.121-2.869,0.71-3.982,1.683l-9.298,8.118l-33.212,44.574l-23.177-37.677l-6.539,5.863l-9.09,21.675
						l25.774,32.035c3.266,4.06,8.196,6.421,13.407,6.421c6.61,0,12.636-3.786,15.504-9.741l25.025-51.964
						c0,0,3.195,3.432,6.567,5.087c1.191,0.584,2.611,0.431,3.662-0.378c1.504-1.159,1.806-3.308,0.679-4.837l-0.42-0.57h-0.714
						C333.93,136.204,332.852,135.532,332.331,134.471z"/>
					<path style="fill:#DE7274;" d="M284.434,170.29l-9.744,13.077c2.052-14.912,8.957-14.356,8.957-14.356L284.434,170.29z"/>
					<path style="fill:#DE7274;" d="M261.257,132.613l-6.539,5.863l-9.09,21.675l20.15,25.045l1.308-11.478
						c0.658-5.775-0.159-11.623-2.375-16.996l-4.94-11.98c-1.336-3.241-0.786-6.953,1.432-9.667l0.895-1.094L261.257,132.613z"/>
					<path style="fill:#DE7274;" d="M335.825,136.204h-0.714c-1.181,0-2.26-0.672-2.78-1.733l-1.436-2.927
						c-0.561-1.144,0.134-2.507,1.389-2.724l0.514-0.089l-0.732-6.49l-0.59,5.441c-4.982,1.114-6.096,3.933-3.474,6.883
						C330.625,137.515,333.881,140.334,335.825,136.204z"/>
				</g>
				<g>
					<path style="fill:#EBA58E;" d="M204.979,121.674c4.659,2.906,10.705,3.969,15.733,1.762c4.389-1.927,7.567-6.675,7.292-11.36
						l-6.586-0.693V97.515l-17.83-4.397l-0.656,18.702l-7.179,0.187C198.18,115.819,201.164,119.295,204.979,121.674z"/>
					<path style="fill:#DE7274;" d="M221.418,106.313c-5.943,2.972-11.537-0.35-17.912-10.861l0.082-2.334l17.83,4.397V106.313z"/>
				</g>
				<g>
					<path style="fill:#654059;" d="M179.221,39.033c-5.824,1.026-10.728,5.593-12.76,11.147
						c-2.032,5.554-1.359,11.903,1.212,17.228c1.927,3.991,5.415,7.752,9.842,7.951c2.249,0.101,4.472-0.754,6.29-2.081
						c1.818-1.327,3.265-3.104,4.504-4.983c3.278-4.973,5.202-10.823,5.563-16.766c0.118-1.952,0.6-4.495-0.327-6.308
						c-1.129-2.206-3.502-3.948-5.69-4.979C185.189,38.986,182.13,38.521,179.221,39.033z"/>
					<path style="fill:#472948;" d="M193.13,44.525c-17.507,1.277-17.195,24.476-10.54,29.526c0.42-0.235,0.828-0.491,1.215-0.773
						c1.818-1.327,3.265-3.104,4.504-4.983c3.278-4.973,5.202-10.823,5.563-16.766c0.118-1.952,0.6-4.495-0.327-6.308
						C193.422,44.983,193.279,44.752,193.13,44.525z"/>
				</g>
				<path style="fill:#EBA58E;" d="M236.334,67.689l0.537,14.779c0.161,4.445-0.731,8.866-2.604,12.901v0
					c-2.442,5.259-7.586,8.741-13.375,9.054l0,0c-3.342,0.181-6.654-0.713-9.451-2.549l-7.092-4.656
					c-3.662-2.404-6.077-6.301-6.601-10.65l-1.891-15.712c-1.391-11.557,7.192-21.918,18.806-22.701l0,0
					C226.104,47.382,235.917,56.227,236.334,67.689z"/>
				<path style="fill:#654059;" d="M207.773,73.989h11.745c-0.295-1.362-1.621-2.472-2.943-2.913s-2.778-0.321-4.115,0.072
					C210.81,71.632,209.005,72.787,207.773,73.989z"/>
				<path style="fill:#422C4F;" d="M215.258,81.757L215.258,81.757c0.748,0,1.355-0.606,1.355-1.355v-1.486
					c0-0.748-0.607-1.355-1.355-1.355l0,0c-0.748,0-1.355,0.606-1.355,1.355v1.486C213.903,81.15,214.509,81.757,215.258,81.757z"/>
				<path style="fill:#654059;" d="M235.453,73.989h-7.26c0.182-1.362,1.002-2.472,1.819-2.913c0.817-0.441,1.717-0.321,2.544,0.072
					C233.576,71.632,234.692,72.787,235.453,73.989z"/>
				<path style="fill:#422C4F;" d="M231.138,81.757L231.138,81.757c-0.517,0-0.936-0.419-0.936-0.936v-2.322
					c0-0.517,0.419-0.936,0.936-0.936l0,0c0.517,0,0.936,0.419,0.936,0.936v2.322C232.074,81.337,231.655,81.757,231.138,81.757z"/>
				<path style="fill:#DE7274;" d="M221.418,86.914h8.575c-0.564,0.913-1.693,1.675-3.023,1.758
					c-0.942,0.059-1.887-0.151-2.727-0.478C223.402,87.867,222.163,87.353,221.418,86.914z"/>
				<path style="fill:#FFFFFF;" d="M227.774,93.647c-5.046-0.086-10.093-0.172-15.139-0.257c1.733,2.365,4.617,4.07,7.548,4.124
					C223.114,97.568,225.955,95.945,227.774,93.647z"/>
				<path style="fill:#654059;" d="M218.586,42.546c-6.811-3.39-15.199-3.417-22.031-0.071c-6.832,3.346-11.954,9.989-13.452,17.447
					c-1.498,7.459,0.318,15.804,5.329,21.528l10.689,8.086c0,0,3.615-3.227,2.117-13.028c10.175-3.187,18.673-11.319,22.304-21.344
					c7.315,2.303,12.78,12.208,12.963,17.228C246.72,54.714,233.584,36.932,218.586,42.546z"/>
				<g>
					<path style="fill:#EBA58E;" d="M194.491,80.653c-1.939-1.061-4.656-0.91-6.059,0.797c-0.848,1.031-1.1,2.445-1.007,3.777
						c0.25,3.577,2.995,6.84,6.476,7.7c1.19,0.294,2.527,0.305,3.555-0.364c0.997-0.649,1.535-1.843,1.665-3.026
						C199.484,86.236,197.413,82.252,194.491,80.653z"/>
					<path style="fill:#DE7274;" d="M189.875,83.34c0.492-0.469,1.2-0.671,1.879-0.635c0.679,0.036,1.331,0.294,1.914,0.643
						c1.845,1.104,3.054,3.201,3.086,5.351c0.013,0.87-0.24,1.863-1.017,2.256c-0.525,0.266-1.182,0.18-1.69-0.117
						c-0.509-0.297-0.886-0.778-1.176-1.291c-0.428-0.76-0.688-1.678-0.419-2.507c0.269-0.83,1.212-1.467,2.032-1.169
						c-0.308-0.822-0.94-1.55-1.674-2.031C192.076,83.358,190.751,83.295,189.875,83.34z"/>
				</g>
				<path style="fill:#FFFFFF;" d="M256.257,176.449L256.257,176.449c6.741-4.136,9.418-12.598,6.282-19.859l-7.822-18.114
					l10.138-9.09l-9.406-7.809c-5.949-4.938-13.226-8.006-20.914-8.815l-6.531-0.687c0.275,4.685-2.903,9.434-7.292,11.36
					c-5.028,2.207-11.074,1.145-15.733-1.762c-3.815-2.38-6.799-5.855-9.225-9.668l-11.89,0.31
					c-11.082,0.289-21.263,6.171-27.049,15.626l-5.055,8.261l27.794,9.964c-3.496,36.708-17.48,66.774-17.48,85.653l98.588-1.748
					c-10.348-17.247-9.62-37.916-8.668-46.879C252.289,180.404,253.866,177.916,256.257,176.449z"/>
				<g>
					<path style="fill:#D8E29F;" d="M303.924,172.716h-2.447c-1.966,0-3.669,1.366-4.095,3.285l0,0
						c-0.803,3.615-0.965,7.338-0.534,11.016c5.193,44.284,0.472,105.457-2.8,134.096c6.293,5.187,15.47,4.401,15.47,4.401
						c10.75-94.655-0.262-145.654-2.884-152.799H303.924z"/>
					<g>
						<path style="fill:#B0C98F;" d="M307.373,175.14h-6.869c-0.818,4.066,3.466,6.133,3.466,6.133
							c3.049,40.101-1.238,108.517-4.777,136.31c-0.308,2.422,0.917,4.797,3.098,5.895c3.373,1.697,7.228,2.037,7.228,2.037
							C319.443,238.127,310.819,187.952,307.373,175.14z"/>
					</g>
				</g>
				<path style="fill:#D0CABA;" d="M210.482,265.208L210.482,265.208c-1.378,0-2.685-0.612-3.567-1.671l-0.793-0.952l-12.991,2.115
					c-11.309,1.841-22.837,1.892-34.162,0.15l-14.726-2.265l-0.441,0.777c-0.646,1.14-1.855,1.845-3.165,1.845l0,0
					c-2.009,0-3.638-1.629-3.638-3.638V160.326c0-1.738,1.409-3.146,3.146-3.146h71.833c1.738,0,3.146,1.409,3.146,3.146v100.239
					C215.125,263.129,213.046,265.208,210.482,265.208z"/>
				<g>
					<path style="fill:#BBA389;" d="M211.979,260.881c-0.217,0-0.393-0.176-0.393-0.393v-97.773c0-1.518-1.235-2.753-2.753-2.753
						h-6.817c-0.217,0-0.393-0.176-0.393-0.393c0-0.217,0.176-0.393,0.393-0.393h6.817c1.952,0,3.54,1.588,3.54,3.54v97.773
						C212.372,260.705,212.196,260.881,211.979,260.881z"/>
				</g>
				<g>
					<g>
						<polygon style="fill:#BE6246;" points="182.488,185.197 170.171,185.197 177.365,197.658 189.682,197.658 						"/>
						<polygon style="fill:#EA9E44;" points="172.651,201.308 181.952,185.197 169.636,185.197 162.441,197.658 158.367,196.201 
							162.88,207.844 176.692,202.753 172.651,201.308 						"/>
					</g>
					<g>
						<polygon style="fill:#BE6246;" points="147.974,222.716 154.133,233.382 161.327,220.922 155.168,210.255 						"/>
						<polygon style="fill:#EA9E44;" points="166.846,223.18 148.242,223.18 154.401,233.846 168.789,233.846 169.564,238.103 
							177.391,228.373 166.076,218.957 166.846,223.18 						"/>
					</g>
					<g>
						<polygon style="fill:#BE6246;" points="197.723,233.846 203.881,223.18 189.493,223.18 183.335,233.846 						"/>
						<polygon style="fill:#EA9E44;" points="188.689,217.271 197.991,233.382 204.149,222.716 196.956,210.255 200.254,207.455 
							187.914,205.542 185.417,220.049 188.689,217.271 						"/>
					</g>
				</g>
				<path style="fill:#CABFAB;" d="M201.675,157.18c0-11.129-1.157-35.048-11.116-45.66c-0.397-0.424-0.968-0.64-1.549-0.624
					l-3.269,0.089c-0.838,0.023-1.579,0.549-1.877,1.332l0,0c10.547,10.253,11.844,33.501,11.844,44.863H201.675z"/>
				<g>
					<path style="fill:#BBA389;" d="M199.897,134.426c-1.931,0.646-3.861,1.292-5.792,1.937c0.933,5.518,1.346,10.986,1.508,15.567
						c2.081-0.488,4.075-1.327,5.874-2.479C201.266,144.905,200.805,139.662,199.897,134.426z"/>
				</g>
				<path style="fill:#E4E4E0;" d="M215.125,181.565h33.431c-0.706-1.481-2.172-2.304-3.809-2.424
					c-1.637-0.12-3.268,0.239-4.908,0.304c-3.584,0.142-7.16-1.258-9.82-3.652c-1.829-1.647-4.526-1.816-6.48-0.32
					c-2.477,1.896-5.678,3.188-8.414,3.47V181.565z"/>
				<polygon style="fill:#E4E4E0;" points="254.717,138.477 248.38,123.801 257.187,136.263 				"/>
				<g>
					<polygon style="fill:#EBA58E;" points="149.647,190.517 156.962,138.069 179.553,146.168 174.658,190.517 					"/>
					<path style="fill:#DE7274;" d="M156.962,138.069l22.591,8.099l-4.895,44.349h-20.452l-2.051-5.319
						c2.797-7.104,10.145-21.339,14.635-29.858c2.055-3.898,0.743-8.716-3.002-11.038l-7.084-4.394L156.962,138.069z"/>
				</g>
				<path style="fill:#EBA58E;" d="M151.216,186.736l24.352-39.862c2.41-3.945,5.398-7.506,8.864-10.564l11.533-10.176
					c2.268-2.001,5.702-1.885,7.83,0.264l6.904,6.975c1.102,1.113,1.573,2.703,1.255,4.237l-1.206,5.819
					c-0.368,1.777-1.732,3.181-3.499,3.6l0,0c-1.91,0.453-3.742-0.996-3.742-2.959l0,0c-4.725,4.72-13.29,4.545-13.29,4.545
					l-15.187,48.892c-2.457,7.91-11.519,11.614-18.813,7.691l0,0C149.56,201.619,147.276,193.185,151.216,186.736z"/>
				<path style="fill:#8F424D;" d="M369.438,167.382l-32.564-17.644v-3.496c0-0.571,0.465-1.036,1.036-1.036
					c4.055,0,7.355-3.299,7.355-7.355c0-4.056-3.3-7.355-7.355-7.355h-1.46c-4.056,0-7.355,3.3-7.355,7.355v1.412
					c0,0.579,0.47,1.049,1.049,1.049s1.049-0.47,1.049-1.049v-1.412c0-2.899,2.359-5.258,5.258-5.258h1.46
					c2.899,0,5.257,2.359,5.257,5.258c0,2.899-2.358,5.258-5.257,5.258c-1.728,0-3.134,1.406-3.134,3.134v3.496l-32.564,17.644
					c-2.146,1.163-3.185,3.534-2.585,5.899c0.6,2.366,2.643,3.956,5.083,3.956h62.23c2.441,0,4.484-1.59,5.083-3.956
					C372.624,170.916,371.584,168.545,369.438,167.382z M369.99,172.767c-0.277,1.095-1.242,2.373-3.05,2.373h-62.23
					c-1.807,0-2.772-1.278-3.05-2.373c-0.278-1.095-0.038-2.679,1.551-3.54l32.613-17.671l32.613,17.671
					C370.028,170.088,370.268,171.672,369.99,172.767z"/>
				<path style="fill:#D8E29F;" d="M374.307,329.151c3.756-26.159,0.361-130.27-6.984-153.613c-0.529-1.681-2.073-2.823-3.835-2.823
					c-11.79,0-59.563,0-59.563,0l0.786,2.424c4.631,15.787,1.962,124.97-2.302,153.353c-0.25,1.662,0.858,3.203,2.505,3.537
					c28.022,5.692,58.522,1.186,66.828-0.25C373.076,331.549,374.115,330.492,374.307,329.151z"/>
				<path style="fill:#6D9B7C;" d="M360.208,209.899c-0.703,6.387-3.608,12.495-8.052,17.128c-0.753,0.785-1.545,1.532-2.383,2.226
					c-4.421,3.659-9.794,5.929-15.042,8.251c-5.247,2.322-10.558,4.818-14.684,8.806c-4.126,3.988-6.926,9.785-5.923,15.435
					c0.929,5.232,5.874,9.763,11.057,9.459c6.485-20.522,25.772-17.341,30.049-39.383c-1.401,21.011-18.738,21.037-28.271,42.792
					c-2.364,5.394-4.249,12.119-5.291,20.836c3.496,2.972,7.516,3.479,7.516,3.479c-1.133-5.399-1.078-13.065,0.601-19.679
					c2.568,2.774,6.273,4.719,9.943,5.142c6.703,0.771,13.387-2.794,17.707-7.977s6.578-11.784,7.962-18.388
					C368.712,242.202,365.923,225.021,360.208,209.899z"/>
				<g>
					<path style="fill:#B0C98F;" d="M340.422,215.535c-0.809-11.144-2.793-22.177-5.087-30.374
						c0.985,8.457,2.289,19.467,3.092,30.521c0.51,6.748,0.833,13.505,1.069,19.683c0.426-0.198,0.853-0.395,1.276-0.599
						C341.004,228.72,340.92,222.119,340.422,215.535z"/>
					<path style="fill:#547374;" d="M340.772,234.766c-0.423,0.204-0.85,0.401-1.276,0.599c0.151,3.94,0.267,7.647,0.373,10.961
						C340.303,242.872,340.612,238.951,340.772,234.766z"/>
					<path style="fill:#B0C98F;" d="M350.277,294.737c-0.329,11.707-1.399,23.376-2.307,32.334
						c2.296-8.703,4.09-20.447,4.421-32.271c0.147-4.631,0.066-9.261-0.189-13.714c-0.579,0.382-1.172,0.74-1.78,1.065
						C350.447,286.262,350.411,290.499,350.277,294.737z"/>
					<path style="fill:#547374;" d="M350.421,282.152c0.609-0.326,1.201-0.683,1.78-1.065c-0.397-6.914-1.22-13.396-2.298-18.764
						C350.14,268.062,350.377,274.909,350.421,282.152z"/>
					<path style="fill:#B0C98F;" d="M358.585,278.967c-0.008,5.522-0.126,11.044-0.016,15.347c1.243-4.119,2.055-9.72,2.062-15.341
						c0.01-2.259-0.114-4.51-0.34-6.669c-0.519,0.894-1.096,1.752-1.703,2.59C358.59,276.24,358.591,277.604,358.585,278.967z"/>
					<path style="fill:#547374;" d="M358.588,274.894c0.607-0.838,1.184-1.696,1.703-2.59c-0.336-3.214-0.902-6.216-1.631-8.684
						C358.558,266.861,358.581,270.792,358.588,274.894z"/>
					<path style="fill:#B0C98F;" d="M327.293,235.863c0.982-3.601,1.448-8.527,1.037-13.409c-0.387-4.884-1.646-9.669-3.199-13.063
						c0.411,3.713,1.05,8.447,1.429,13.207C326.959,227.358,327.096,232.132,327.293,235.863z"/>
				</g>
				<g>
					<path style="fill:#EBA58E;" d="M350.976,124.767c-0.181-2.444-1.643-4.61-3.841-5.692l-1.062-0.523
						c-4.418-2.175-9.343-3.111-14.25-2.709l-0.472,0.039l1.449,12.85l-0.514,0.089c-1.256,0.218-1.95,1.58-1.389,2.724l1.436,2.927
						c0.52,1.061,1.599,1.733,2.78,1.733h0.714l7.816-0.145c1.044-0.019,2.044-0.427,2.804-1.144l3.642-3.434
						c0.819-0.772,1.246-1.873,1.163-2.995L350.976,124.767z"/>
					<g>
						<path style="fill:#DE7274;" d="M337.344,135.331c-0.072,0-0.146-0.02-0.211-0.061c-0.183-0.117-0.237-0.36-0.12-0.543
							c2.231-3.498,3.211-7.865,2.691-11.98c-0.027-0.215,0.125-0.412,0.341-0.439c0.214-0.024,0.412,0.126,0.439,0.341
							c0.543,4.295-0.48,8.851-2.807,12.502C337.601,135.268,337.474,135.331,337.344,135.331z"/>
					</g>
					<g>
						<path style="fill:#DE7274;" d="M341.388,135.493c-0.104,0-0.207-0.041-0.285-0.122c-0.15-0.157-0.144-0.406,0.013-0.556
							c2.753-2.626,4.722-6.118,5.545-9.833c0.048-0.212,0.257-0.343,0.469-0.299c0.212,0.047,0.346,0.257,0.299,0.469
							c-0.856,3.865-2.905,7.499-5.77,10.232C341.583,135.458,341.486,135.493,341.388,135.493z"/>
					</g>
				</g>
			</g>
		</g>
	</g>
</g>
</svg>
